<?xml version="1.0" encoding="UTF-8" standalone="no"?>
<!-- Created with Inkscape (http://www.inkscape.org/) -->

<svg
   width="200mm"
   height="200mm"
   viewBox="0 0 199.99999 199.99999"
   version="1.1"
   id="svg1"
   xml:space="preserve"
   inkscape:version="1.4 (e7c3feb1, 2024-10-09)"
   sodipodi:docname="logo custom.svg"
   xmlns:inkscape="http://www.inkscape.org/namespaces/inkscape"
   xmlns:sodipodi="http://sodipodi.sourceforge.net/DTD/sodipodi-0.dtd"
   xmlns="http://www.w3.org/2000/svg"
   xmlns:svg="http://www.w3.org/2000/svg"><sodipodi:namedview
     id="namedview1"
     pagecolor="#ffffff"
     bordercolor="#000000"
     borderopacity="0.25"
     inkscape:showpageshadow="2"
     inkscape:pageopacity="0.0"
     inkscape:pagecheckerboard="0"
     inkscape:deskcolor="#d1d1d1"
     inkscape:document-units="mm"
     inkscape:zoom="0.16778923"
     inkscape:cx="1421.4262"
     inkscape:cy="1031.0555"
     inkscape:window-width="1472"
     inkscape:window-height="919"
     inkscape:window-x="0"
     inkscape:window-y="37"
     inkscape:window-maximized="0"
     inkscape:current-layer="layer1" /><defs
     id="defs1" /><g
     inkscape:label="Layer 1"
     inkscape:groupmode="layer"
     id="layer1"><path
       style="fill:#000000"
       d="m 93.396113,197.12795 c -1.46886,-0.50057 -3.4804,-2.5313 -3.75762,-3.79348 -0.0951,-0.43276 -0.32466,-0.78683 -0.51025,-0.78683 -0.18558,0 -1.81323,0.11745 -3.617,0.261 -1.80376,0.14354 -10.54238,0.80054 -19.41915,1.46 -8.87677,0.65945 -18.52083,1.37827 -21.43125,1.59736 -15.127782,1.13881 -19.543395,1.43582 -19.657033,1.32218 -0.06872,-0.0687 0.800458,-1.34931 1.931503,-2.84576 1.131045,-1.49645 1.980092,-2.50205 1.886771,-2.23467 -0.334802,0.95928 -0.447112,2.43091 -0.212232,2.78098 0.198054,0.29518 1.625851,0.19081 8.277461,-0.60508 28.40579,-3.39884 34.14591,-4.04576 42.30166,-4.76745 5.45419,-0.48263 10.99364,-0.63133 11.85854,-0.31831 0.33756,0.12216 1.01936,0.8562 1.51512,1.63119 1.37371,2.14746 2.50291,2.82024 5.55072,3.30713 2.093737,0.33447 4.753477,-0.0237 6.469667,-0.87123 0.83732,-0.41351 1.53906,-1.08684 2.39336,-2.29647 0.95648,-1.3543 1.39941,-1.75445 2.12263,-1.91764 2.43977,-0.55051 15.95056,0.70709 44.70247,4.16094 7.78536,0.93522 14.76064,1.7698 15.5006,1.85462 1.77802,0.2038 2.15861,-0.19669 1.77597,-1.86883 -0.14841,-0.64852 -0.22657,-1.17912 -0.1737,-1.17912 0.20097,0 3.8458,5.06869 3.72889,5.1856 -0.10119,0.10119 -22.96648,-1.52669 -35.64843,-2.53797 -1.81901,-0.14505 -6.58151,-0.50373 -10.58333,-0.79706 -4.00182,-0.29333 -9.56481,-0.71064 -12.36219,-0.92737 -2.79738,-0.21672 -5.25502,-0.39404 -5.46142,-0.39404 -0.2064,0 -0.45534,0.31901 -0.5532,0.70891 -0.30526,1.21626 -1.54435,2.67802 -2.92215,3.44727 -1.31886,0.73635 -1.33996,0.7388 -6.87917,0.79793 -4.564847,0.0487 -5.783037,-0.018 -6.827237,-0.3738 z m -61.243411,-8.67 c -1.485921,-0.33802 -4.144111,-1.43896 -3.947955,-1.63511 0.04214,-0.0421 0.66638,0.1104 1.387194,0.339 0.770354,0.2443 2.728368,0.47087 4.750155,0.54965 5.462117,0.21285 9.072117,-0.32832 25.135417,-3.76803 3.54108,-0.75827 5.31708,-0.9941 8.34865,-1.10857 6.97763,-0.26347 15.54917,0.83116 21.81385,2.78576 1.86476,0.58181 6.28087,2.45411 6.13424,2.60074 -0.0557,0.0557 -2.23257,-0.36874 -4.83753,-0.94315 -5.51434,-1.21596 -9.76554,-1.98365 -13.44216,-2.42741 -3.0825,-0.37206 -10.19194,-0.16247 -12.98997,0.38294 -5.67089,1.10541 -12.79599,2.3762 -15.96458,2.84735 -4.78473,0.71146 -13.98615,0.92305 -16.387311,0.37683 z m 123.633148,0.2053 c -5.50606,-0.70018 -9.89526,-1.39733 -15.74018,-2.50004 -12.1827,-2.29841 -17.52809,-2.0763 -32.41205,1.34673 -1.87887,0.43211 -3.46875,0.73304 -3.53305,0.66874 -0.18216,-0.18217 3.10538,-1.59263 5.82956,-2.50107 5.6455,-1.88263 12.16123,-2.78028 20.05885,-2.76345 5.56953,0.0119 5.78265,0.0328 10.18646,1.00093 15.24374,3.35114 19.53045,4.0023 25.00312,3.798 2.08791,-0.0779 4.09402,-0.29976 4.82865,-0.53392 0.69122,-0.22031 1.25677,-0.35511 1.25677,-0.29955 0,0.29211 -2.39759,1.25713 -3.93065,1.58207 -1.63199,0.34591 -9.35261,0.48067 -11.54748,0.20156 z m -57.811457,-1.44826 c -1.87043,-1.14761 -9.20412,-4.71582 -11.77396,-5.72863 -5.44457,-2.14578 -9.02025,-2.95314 -13.89063,-3.13638 -2.83672,-0.10673 -4.42251,-0.0383 -6.08542,0.26245 -1.23692,0.22374 -4.51114,0.82223 -7.27604,1.33 -7.83449,1.43878 -11.41572,1.84128 -16.27187,1.82879 -4.68847,-0.0121 -7.14049,-0.44251 -9.56424,-1.67901 l -1.140394,-0.58179 2.11117,-1.99427 c 4.918944,-4.64657 15.400284,-13.95573 17.721584,-15.73969 l 1.05834,-0.81335 -0.79313,0.90946 c -0.43621,0.50019 -2.76941,2.93351 -5.18488,5.40736 -6.32608,6.47899 -9.51345,9.92623 -9.83941,10.64165 -0.23754,0.52133 -0.18746,0.72291 0.3005,1.20967 0.55067,0.54931 0.80169,0.58211 4.21477,0.55061 3.91499,-0.0361 6.62429,-0.4243 18.4459,-2.64281 10.10778,-1.89688 13.91354,-1.77603 21.61272,0.68629 3.59765,1.15059 10.08374,4.25786 13.21404,6.33041 3.21671,2.12976 5.959637,4.88865 3.14095,3.15924 z m 3.571877,-0.64196 c 5.61375,-5.04294 16.74337,-9.84693 24.87083,-10.73524 3.57928,-0.3912 5.31521,-0.2168 14.55209,1.46203 12.11826,2.20252 13.44651,2.38741 17.25599,2.40207 3.26377,0.0126 3.53677,-0.0256 4.08248,-0.57064 0.48712,-0.48652 0.53723,-0.68853 0.29994,-1.20932 -0.31323,-0.68746 -3.65384,-4.27995 -10.38795,-11.17116 -5.47645,-5.60422 -6.01905,-6.28127 -3.18067,-3.9688 3.95491,3.22212 18.52083,16.36476 18.52083,16.7111 0,0.29228 -3.0463,1.47198 -4.80794,1.86191 -2.59879,0.57523 -9.06472,0.55524 -13.5806,-0.042 -1.89177,-0.25018 -6.63691,-1.03942 -10.54476,-1.75387 -5.90843,-1.0802 -7.63039,-1.299 -10.22338,-1.299 -7.11755,0 -15.02112,2.55135 -25.34929,8.18299 -1.35365,0.73811 -2.54428,1.33668 -2.64584,1.33016 -0.10155,-0.007 0.41067,-0.54664 1.13827,-1.20026 z m -1.984376,-10.41394 c 0,-6.88958 0.0926,-10.59895 0.264582,-10.59895 0.17192,0 0.264584,3.65487 0.264584,10.43543 0,6.67155 -0.0954,10.49441 -0.264584,10.59895 -0.17471,0.10797 -0.264582,-3.43684 -0.264582,-10.43543 z M 57.537813,163.05047 c -1.09129,-0.34054 -2.16134,-1.06403 -2.16134,-1.46133 0,-0.10165 0.62508,-0.0155 1.38906,0.19148 2.1419,0.58024 6.80364,0.29248 13.69219,-0.84518 8.72498,-1.44096 11.12557,-1.27812 23.49432,1.59366 2.53438,0.58844 2.2952,0.76079 -0.3677,0.26496 -3.9342,-0.73254 -9.76319,-1.48816 -12.67558,-1.64315 -2.53248,-0.13478 -3.54603,-0.0443 -7.80521,0.6971 -9.72788,1.69325 -13.14667,1.95735 -15.56574,1.20246 z m 75.361587,-0.13114 c -1.67349,-0.26187 -4.82865,-0.78659 -7.01146,-1.16605 -2.18281,-0.37945 -4.74339,-0.69017 -5.69017,-0.69048 -2.11066,-7e-4 -7.54212,0.61455 -11.68264,1.32335 -3.17022,0.54269 -3.83926,0.61766 -3.62813,0.40653 0.19848,-0.19848 8.35991,-1.98116 11.06762,-2.41748 3.86436,-0.6227 6.84427,-0.49483 13.24061,0.56814 6.68707,1.11129 11.58417,1.41115 13.69219,0.8384 1.47718,-0.40136 1.69947,-0.2887 0.88491,0.44847 -1.4039,1.27051 -5.49893,1.53005 -10.87293,0.68912 z m -28.8892,0.0788 c 0.191,-0.0764 0.4192,-0.067 0.50712,0.0209 0.0879,0.0879 -0.0683,0.15045 -0.34726,0.13896 -0.30823,-0.0127 -0.37092,-0.0754 -0.15986,-0.15985 z"
       id="path1"
       inkscape:label="book" /><path
       id="path3"
       style="fill:#203463;stroke:none;stroke-width:10;stroke-dasharray:none"
       inkscape:label="logo"
       d="M 82.703996,5.1676432e-4 C 82.320888,-0.00403394 81.944311,0.01436548 81.5821,0.06252848 c -0.866462,0.115212 -1.734498,0.11192792 -2.601391,0.27646892 -2.463458,0.46758604 -4.837846,1.5902521 -6.613033,3.4116781 -5.090835,5.223454 -4.748196,14.7373365 0.96945,19.3636755 2.999555,2.427035 7.029419,3.094475 10.757999,2.597775 3.286114,-0.437752 6.431801,-2.082882 8.470801,-4.766118 C 96.679571,15.532629 96.403805,6.3334553 90.488534,2.3213053 89.167398,1.4252143 87.673051,0.81797106 86.123425,0.47128906 85.061979,0.23381578 83.853319,0.01416888 82.703996,5.1676432e-4 Z M 33.686316,0.00826823 c -0.326845,-0.00296553 -0.648403,0.01308125 -0.958081,0.05426025 -1.348512,0.179305 -2.551355,0.32322817 -3.7915,0.95291342 -0.823207,0.417994 -1.554265,1.0079906 -2.110982,1.7528646 -0.46825,0.626501 -0.787391,1.3376047 -0.969967,2.0990967 -0.142116,0.592741 -0.138014,1.1808022 -0.137976,1.7864542 2.24e-4,3.5267246 2.977444,5.9992056 5.467367,7.9850426 0.91445,0.729325 1.864706,1.431202 2.626713,2.332157 1.038157,1.227452 1.701089,2.898646 1.221631,4.510836 -1.06474,3.580209 -6.409931,3.601538 -8.25376,0.759127 -0.545758,-0.841331 -0.861671,-1.987065 -0.885734,-2.992583 -0.0053,-0.220849 -0.07673,-0.619876 -0.394808,-0.507979 -0.385527,0.135624 -0.350584,1.025302 -0.354501,1.357023 -0.01318,1.116407 -0.132291,2.231876 -0.132291,3.349667 0,0.402707 -0.08573,0.95902 0.193786,1.29036 0.336311,0.398662 1.130834,0.578662 1.613855,0.712618 1.551119,0.430173 3.254514,0.51062 4.85035,0.356568 1.340916,-0.129441 2.636453,-0.518015 3.7915,-1.225249 0.7671,-0.469701 1.442683,-1.106703 1.958537,-1.848982 0.452044,-0.650467 0.773491,-1.37456 0.967899,-2.144056 0.156471,-0.619336 0.204122,-1.239191 0.204122,-1.875854 0,-4.289352 -3.410748,-6.791364 -6.437333,-9.2004721 -1.54631,-1.2308436 -3.493316,-2.7627267 -3.206006,-5.0022787 0.439821,-3.428349 5.329416,-3.77425076 7.229533,-1.4738118 0.698745,0.845955 0.782925,1.6196515 1.02061,2.6344645 0.04473,0.190995 0.220484,0.3208768 0.413928,0.2351278 0.334828,-0.148403 0.22996,-0.8371838 0.22996,-1.1275798 0,-0.968232 0.04813,-1.9366939 0.08992,-2.9031819 0.0126,-0.291573 0.170184,-0.8435583 -0.03462,-1.09140629 C 37.668776,0.50573371 36.944603,0.4514214 36.608618,0.38292236 35.696848,0.19705286 34.666852,0.01716482 33.686316,0.00826823 Z M 57.067318,0.03410644 C 56.756548,0.02137419 56.445766,0.02203948 56.141276,0.06252848 55.295315,0.17501448 54.434372,0.15210473 53.583809,0.27905273 51.527083,0.58602277 49.513195,1.2969521 47.807935,2.5192261 41.746961,6.8635331 41.0035,16.702905 46.396651,21.926827 c 3.111412,3.013791 7.428621,3.93206 11.596192,3.93206 1.371307,0 2.745649,-0.08171 4.100525,-0.309025 0.660455,-0.110807 1.391785,-0.228353 1.984375,-0.562757 0.46535,-0.262601 0.558988,-0.742763 0.677994,-1.227315 0.242805,-0.988623 0.402537,-2.025001 0.514698,-3.037024 0.03417,-0.308299 0.297244,-1.306013 -0.136426,-1.414901 -0.249482,-0.06264 -0.373119,0.130445 -0.432015,0.342615 -0.199871,0.720046 -0.421105,1.387017 -0.845943,2.010213 -1.036015,1.519746 -2.671525,2.057779 -4.408,2.225188 -1.376518,0.132701 -2.807422,0.106901 -4.14445,-0.27957 -7.123448,-2.059079 -9.789965,-10.97648 -6.77633,-17.398938 1.70096,-3.624971 5.506413,-4.8362675 9.200988,-4.4741455 1.634147,0.16018 3.344158,0.5215619 4.718059,1.4825969 1.061259,0.742345 1.736692,2.0132661 1.855183,3.3041911 0.02535,0.276177 -0.03143,1.0330786 0.435633,0.9172566 0.418909,-0.103871 0.316309,-1.0347608 0.347265,-1.3642578 0.115603,-1.230429 -0.04599,-2.4750345 0.114205,-3.7067505 C 65.241154,2.0391218 65.4553,1.3009536 65.167598,1.0578166 64.98237,0.90125589 64.657691,0.92409499 64.430176,0.89245199 63.926618,0.82240199 63.431547,0.70113949 62.931042,0.61288249 61.283739,0.32242145 59.65995,0.16022864 57.992843,0.08629964 57.68856,0.07279964 57.378088,0.04683869 57.067318,0.03410644 Z m 78.174552,0.0031006 c -0.32501,-0.014922 -0.64981,-0.01724655 -0.96996,0.02532145 -0.83156,0.110566 -1.67771,0.09178625 -2.51354,0.21652425 -2.0275,0.30260804 -4.05243,0.97993457 -5.73195,2.19573157 -1.56781,1.134932 -2.85432,2.5701721 -3.73621,4.3129151 -2.48551,4.9116856 -1.55685,11.5287336 2.45773,15.3153446 3.07578,2.901119 7.35354,3.755843 11.41946,3.755843 1.27037,0 2.53318,-0.08478 3.79202,-0.262517 0.76369,-0.10783 1.61088,-0.236908 2.29288,-0.621667 0.45065,-0.254238 0.55627,-0.743402 0.66662,-1.214913 0.23343,-0.997455 0.38097,-2.021316 0.5116,-3.037024 0.0384,-0.298704 0.29722,-1.303745 -0.12506,-1.414901 -0.22361,-0.05886 -0.36727,0.101214 -0.42839,0.298173 -0.22818,0.735301 -0.42571,1.406718 -0.86042,2.054655 -1.01616,1.514643 -2.67571,2.059534 -4.39404,2.225188 -1.5868,0.152983 -3.20137,0.07717 -4.71754,-0.454236 -3.22689,-1.130995 -5.77949,-3.883976 -6.78925,-7.175273 -0.54336,-1.771094 -0.65941,-3.608604 -0.53434,-5.448763 0.0981,-1.4434289 0.3441,-2.9168978 0.94361,-4.2431518 0.30817,-0.68174 0.6857,-1.3370632 1.1529,-1.9202962 2.0635,-2.576006 5.16622,-3.1599181 8.26927,-2.9073161 1.55927,0.126923 3.27437,0.5182216 4.58525,1.4216186 1.14021,0.785786 1.92171,2.1774141 1.94045,3.5847941 0.004,0.271008 0.0315,0.8035713 0.43666,0.6945313 0.40465,-0.108887 0.31265,-1.0440876 0.31265,-1.3647746 0,-1.235205 0.0661,-2.4744235 0.13384,-3.7067505 0.0184,-0.334164 0.25124,-1.0053998 -0.0155,-1.2764078 -0.16948,-0.17204396 -0.46977,-0.16049061 -0.69143,-0.19171961 -0.48793,-0.06874 -0.97224,-0.16726909 -1.4552,-0.26510009 -1.6419,-0.33255004 -3.31181,-0.50375161 -4.98213,-0.54518636 -0.31982,-0.00794 -0.64495,-0.03572091 -0.96997,-0.05064291 z M 97.984717,0.07234701 c -0.324272,0.108407 -0.350078,0.62736044 -0.412895,0.90898844 -0.21352,0.95728395 -0.404493,1.93222395 -0.545703,2.90318195 -0.03827,0.263157 -0.210679,1.0081334 0.166915,1.0955404 0.377024,0.08728 0.44401,-0.4507747 0.545703,-0.6934977 0.28468,-0.679472 0.675721,-1.2734806 1.391646,-1.5182536 0.824927,-0.282043 1.702257,-0.231827 2.557467,-0.269751 1.48057,-0.06566 2.9704,-0.1322917 4.45347,-0.1322917 V 15.005802 c 0,2.443412 0.13229,4.937478 -0.0961,7.36906 -0.064,0.680846 -0.0755,1.719072 -0.69815,2.150773 -0.44546,0.308877 -1.0398,0.210271 -1.54254,0.273885 -0.16866,0.02134 -0.44379,0.06573 -0.42065,0.299723 0.0233,0.23606 0.32363,0.286599 0.5085,0.305408 0.56787,0.05779 1.15002,-0.03721 1.71979,-0.03721 2.05957,0 4.11015,-0.05063 6.17275,5.17e-4 0.49893,0.01237 0.99713,0.07779 1.49913,0.04031 0.16561,-0.01237 0.42905,-0.05136 0.5023,-0.228926 0.13297,-0.322333 -0.29128,-0.381242 -0.5023,-0.390674 -0.73239,-0.03276 -1.73161,0.07277 -2.33319,-0.434082 -0.66794,-0.562755 -0.60702,-1.807545 -0.66094,-2.605009 -0.15594,-2.306306 -0.0481,-4.653842 -0.0481,-6.967017 V 2.3662638 c 1.07384,0 2.14639,0.061767 3.21841,0.088367 1.20946,0.03001 2.43874,9.837e-4 3.57136,0.5115967 0.51805,0.233542 0.9699,0.6544596 1.08985,1.2309326 0.0585,0.281148 -0.0383,1.07805 0.36587,1.107426 0.41537,0.03018 0.35243,-0.6209398 0.35243,-0.8841838 0,-1.013658 0.0879,-2.0241939 0.0879,-3.0370239 0,-0.260496 0.12253,-1.01220155 -0.2253,-1.09295655 -0.39618,-0.09199 -1.04255,0.17082601 -1.45005,0.22582601 -0.86172,0.116324 -1.73309,0.10800374 -2.60139,0.10800374 h -11.37553 c -1.30982,0 -2.62262,-0.0385471 -3.924308,-0.18603515 -0.377788,-0.04281 -1.022843,-0.48068914 -1.366325,-0.36586914 z m 49.907543,0.44131673 c -0.16966,-0.004694 -0.33757,0.002708 -0.47904,0.0506429 h -5.1e-4 c -0.23926,0.08106 -0.28691,0.3901271 -0.0408,0.49971106 0.42811,0.191235 1.07044,0.038186 1.53841,0.1322917 1.37035,0.275566 1.48918,1.3874828 1.54151,2.5988078 0.0724,1.675248 0.002,3.3702021 0.002,5.0472371 v 9.9151567 c 0,1.395702 0.0304,2.814749 -0.16434,4.198194 -0.074,0.525573 -0.16068,1.244576 -0.62993,1.56993 -0.39364,0.272938 -0.95662,0.242894 -1.41025,0.263033 -0.17831,0.0079 -0.47561,0.01817 -0.54467,0.223759 -0.0818,0.243574 0.18942,0.337734 0.36845,0.37207 0.45367,0.08701 0.91304,-0.01484 1.36684,-0.01705 1.9721,-0.0096 3.93682,0 5.90817,0 0.66373,0 1.32064,0.04552 1.98438,0.04444 0.21607,-3.49e-4 0.61335,0.01726 0.74827,-0.195854 0.20804,-0.328603 -0.27382,-0.417975 -0.48369,-0.427364 -0.86877,-0.03885 -2.20226,0.105632 -2.64945,-0.850594 -0.39275,-0.839805 -0.31183,-1.910091 -0.35088,-2.813782 -0.0821,-1.900415 -0.0419,-3.811965 -0.0419,-5.716447 V 13.44259 c 0,-0.18467 -0.0702,-0.550541 0.13849,-0.642854 0.36561,-0.161707 1.0503,-0.02739 1.44849,-0.02739 h 3.39514 5.68803 1.45469 c 0.16426,0 0.42016,-0.04642 0.55449,0.07183 0.17507,0.154096 0.10697,0.523422 0.10697,0.732255 v 1.920297 c 0,1.474592 -0.0267,2.950839 -0.0439,4.421952 -0.0144,1.223124 0.0427,2.513831 -0.2713,3.70675 -0.26427,1.003932 -0.96853,1.139316 -1.88929,1.162203 -0.20025,0.005 -0.66475,0.03722 -0.57309,0.354501 0.067,0.231939 0.3755,0.252351 0.57309,0.266133 0.5855,0.04084 1.17683,-0.04082 1.76372,-0.04082 h 5.59966 c 0.66846,0 1.66505,0.256334 2.29081,-0.03152 0.24117,-0.11097 0.263,-0.394256 0.001,-0.488859 -1.11975,-0.405629 -2.6656,0.332226 -3.11092,-1.266072 -0.0802,-0.287898 -0.11525,-0.596287 -0.14366,-0.893486 -0.20358,-2.1294 -0.13952,-4.29084 -0.13952,-6.431132 V 6.9664998 c 0,-1.300433 -0.0754,-2.6393224 0.0754,-3.9305094 0.0651,-0.557173 0.0975,-1.1091324 0.54209,-1.5099854 0.39115,-0.352635 1.04002,-0.4086538 1.54306,-0.4103108 0.19251,-6.32e-4 0.54443,0.020942 0.60203,-0.22840986 0.064,-0.276852 -0.22008,-0.3463775 -0.42581,-0.3519165 -0.55766,-0.01498 -1.11748,-5.1677e-4 -1.67535,-5.1677e-4 -0.9993,0 -1.9975,0.0910502 -2.99827,0.0894002 -0.99844,-0.0016 -1.99789,-0.0894002 -2.99827,-0.0894002 h -1.41128 c -0.18245,6.5e-5 -0.41796,-0.0273667 -0.5395,0.14417725 -0.18969,0.267693 0.15358,0.41652478 0.36328,0.43253178 0.92706,0.07074 2.20194,-0.050917 2.62516,1.0314615 0.26184,0.669637 0.16811,1.4414955 0.19844,2.1435385 0.0565,1.307521 0.0424,2.6195654 0.0424,3.9305094 0,0.762168 0.17282,1.7636017 -0.014,2.5006225 -0.0845,0.335102 -0.47363,0.268201 -0.73535,0.268201 h -2.16059 -6.83421 -1.98438 c -0.25683,0 -0.63845,0.07154 -0.87901,-0.02687 -0.21837,-0.08933 -0.17879,-0.359648 -0.1788,-0.553455 V 8.7973958 4.1527181 c 0,-0.727929 -0.0449,-1.7303954 0.35811,-2.3672974 0.3687,-0.58271 1.17737,-0.6656265 1.80196,-0.6697265 0.20833,-0.0014 0.60967,-0.00642 0.601,-0.31109215 -0.007,-0.261085 -0.32625,-0.26876898 -0.51263,-0.26975098 -0.58783,-0.0031 -1.17588,-9.57e-4 -1.76372,0 -1.54355,0.0026 -3.08307,0.14812115 -4.62969,0.0408244 -0.67545,-0.04687 -1.35005,-0.0408244 -2.0283,-0.0408244 -0.14793,0 -0.31919,-0.0164936 -0.48886,-0.0211873 z M 81.854435,1.6469279 c 0.462445,0.036864 0.922186,0.1111703 1.35909,0.2087728 0.727605,0.162535 1.40713,0.430505 2.072225,0.767395 4.854098,2.458678 6.002072,8.8110313 5.303036,13.7671183 -0.518137,3.673515 -2.433079,7.245187 -6.405294,7.7587 -0.911765,0.117872 -1.829846,0.05851 -2.733683,-0.09509 -0.790739,-0.13438 -1.567825,-0.3843 -2.292884,-0.731222 -4.619813,-2.210437 -6.071534,-7.711592 -5.865791,-12.470556 0.140634,-3.2529969 1.186861,-6.8391829 4.278808,-8.4051719 0.914715,-0.463289 1.903956,-0.6621102 2.9099,-0.7823812 0.447002,-0.053451 0.912148,-0.054434 1.374593,-0.01757 z M 53.036556,35.230408 c -0.416034,-0.0021 -0.824521,0.01917 -1.216463,0.07131 -2.024779,0.269394 -3.896621,0.425116 -5.643583,1.652612 -4.455838,3.130888 -4.879562,10.182797 -0.926042,13.911813 2.230261,2.103611 5.477087,2.726756 8.421708,2.596224 1.210253,-0.05365 2.736741,0.03823 3.835942,-0.573609 0.387102,-0.215463 0.459713,-0.58723 0.54777,-0.99167 0.144463,-0.663498 0.242807,-1.336767 0.33383,-2.009697 0.02927,-0.216379 0.209264,-0.932262 -0.09767,-1.012341 -0.205092,-0.05351 -0.273034,0.138839 -0.315226,0.297656 -0.135236,0.509075 -0.330372,1.001791 -0.641821,1.42937 -0.795214,1.091709 -2.005607,1.389515 -3.265951,1.511019 -0.81938,0.07899 -1.715701,0.03657 -2.513542,-0.166398 -5.029232,-1.2794 -7.107969,-7.571117 -5.057055,-12.108305 1.208329,-2.67316 3.860346,-3.63487 6.600114,-3.357418 1.066597,0.108015 2.213798,0.334764 3.130558,0.931726 0.837856,0.545582 1.321932,1.397062 1.473295,2.380734 0.0283,0.18394 -0.02585,0.826448 0.329696,0.686779 0.268538,-0.105485 0.22522,-0.71825 0.225309,-0.954463 3.36e-4,-0.884239 0.03005,-1.75512 0.0894,-2.635498 0.01595,-0.236508 0.15845,-0.723888 -0.05943,-0.89917 -0.302441,-0.243366 -1.143058,-0.229503 -1.529105,-0.306441 -1.156014,-0.2304 -2.473635,-0.447837 -3.721737,-0.454236 z m 81.639974,0.0041 c -0.43742,-0.0073 -0.86855,0.01161 -1.28622,0.06718 h -5.2e-4 c -0.62977,0.08379 -1.26458,0.0715 -1.89601,0.178801 -1.27171,0.216117 -2.47179,0.687443 -3.57136,1.365291 -4.46405,2.75193 -5.27917,10.014702 -1.58646,13.755233 2.52934,2.562102 6.3939,3.059301 9.78751,2.818432 1.31296,-0.09319 2.73885,-0.295785 3.92431,-0.913639 0.59406,-0.309619 0.39688,-1.197621 0.39688,-1.769918 0,-1.581832 -0.18847,-3.305544 0.0568,-4.868436 0.16339,-1.036949 0.94994,-0.703544 1.60817,-1.015442 0.15367,-0.07282 0.15444,-0.261741 0.004,-0.337447 -0.38819,-0.199326 -1.06559,-0.03152 -1.49242,-0.03152 h -3.74757 c -0.3907,0 -0.80447,-0.08323 -1.19063,-0.03152 -0.11692,0.01566 -0.31811,0.03596 -0.3576,0.175183 -0.0705,0.248567 0.30046,0.257609 0.44545,0.258383 0.63074,0.0034 1.44008,0.09253 1.66605,0.804085 0.16518,0.520132 0.0977,1.11439 0.0977,1.652612 v 2.947624 c 0,0.488325 0.13985,1.213866 -0.23461,1.593184 -0.37664,0.381509 -1.16014,0.415694 -1.66088,0.416512 -1.4093,0.0023 -2.77456,-0.182488 -4.0566,-0.815454 -3.29645,-1.627532 -4.70118,-5.528285 -4.32842,-9.055261 0.31254,-2.957263 2.05133,-5.463771 5.12217,-5.882845 2.05997,-0.281127 4.31598,0.03787 6.04045,1.284676 0.6762,0.488902 1.10122,1.183487 1.25161,2.008146 0.035,0.191987 0.0204,0.704953 0.33176,0.645439 0.31226,-0.05969 0.22428,-0.731758 0.22428,-0.958081 0,-0.884838 0.0384,-1.754586 0.0868,-2.635498 0.013,-0.23605 0.15785,-0.725621 -0.0568,-0.89917 -0.13846,-0.111406 -0.35068,-0.07638 -0.5147,-0.09612 -0.38367,-0.04616 -0.76569,-0.104337 -1.1467,-0.169499 -1.2351,-0.211238 -2.60429,-0.46893 -3.91656,-0.490926 z m -63.202856,0.06615 c -0.582947,-0.06052 -1.169836,-0.06991 -1.708423,0.001 -2.328041,0.309739 -4.438872,0.716994 -6.216675,2.439128 -3.574892,3.462948 -3.623244,10.03405 0.08837,13.434322 2.133474,1.954543 5.095413,2.571215 7.892024,2.227771 2.377034,-0.291911 4.629964,-1.45004 6.110222,-3.381706 2.817009,-3.676067 2.719449,-9.963528 -1.12758,-12.890686 -0.996213,-0.758013 -2.14715,-1.233415 -3.351217,-1.529622 -0.524689,-0.129077 -1.103772,-0.239724 -1.686718,-0.30024 z m 83.830026,0.141593 c -0.46722,0.03372 -0.93428,0.205222 -1.41025,0.238228 -2.11372,0.146583 -4.36479,0.09522 -6.48178,0.0021 -0.69086,-0.03063 -1.37869,-0.04289 -2.07222,-0.04289 -0.1948,0 -0.61754,-0.07851 -0.76585,0.07803 -0.13883,0.146538 0.061,0.288892 0.19276,0.313676 0.71899,0.135254 1.64549,-0.07176 1.92081,0.858863 0.15269,0.516097 0.0653,1.038032 0.11472,1.563212 0.15855,1.687493 0.0367,3.439937 0.0367,5.13612 0,1.830291 0.0365,3.667421 -0.0424,5.493722 -0.0349,0.807158 0.0182,1.609771 -0.10904,2.411739 -0.0651,0.410198 -0.14712,0.896962 -0.55397,1.102775 -0.30356,0.153561 -0.68759,0.11518 -1.01389,0.152962 -0.114,0.0132 -0.26824,0.06912 -0.23151,0.217558 0.0582,0.235036 0.40894,0.179317 0.58394,0.179317 0.61854,0 1.23642,-0.0442 1.85208,-0.04444 1.72697,-6.77e-4 3.48111,-0.02638 5.20279,0.09302 0.63178,0.04381 1.26154,0.04082 1.89601,0.04082 0.32592,0 0.70684,0.04802 1.01337,-0.0894 0.27635,-0.12388 0.3461,-0.440319 0.39377,-0.714685 0.10927,-0.628878 0.20634,-1.282172 0.2248,-1.920296 0.005,-0.189664 0.16864,-0.865063 -0.17777,-0.865063 -0.27993,0 -0.37305,0.914427 -0.46044,1.132747 -0.26527,0.662702 -0.84785,1.00733 -1.5229,1.110526 -0.75292,0.115102 -1.49343,0.08743 -2.24896,0.05271 -0.49012,-0.02253 -1.06643,-0.07047 -1.45417,-0.413411 -0.45522,-0.402619 -0.48573,-1.117876 -0.48576,-1.687752 v -3.706751 c 0,-0.414221 -0.1636,-1.285193 0.0522,-1.642277 0.19717,-0.326673 1.16479,-0.09974 1.49087,-0.09974 0.89962,0 2.43876,-0.241364 2.99878,0.670243 0.22543,0.366964 0.12161,0.770273 0.23926,1.156002 0.0543,0.177931 0.26536,0.208314 0.35502,0.03927 0.1972,-0.371587 0.0939,-1.132833 0.11265,-1.552877 0.0226,-0.505499 0.0764,-1.016113 0.14315,-1.518253 0.0211,-0.15885 0.13464,-0.457218 0.0232,-0.598414 -0.0747,-0.09569 -0.21298,-0.04923 -0.29662,0.0062 -0.33881,0.224622 -0.5031,0.441664 -0.92966,0.513663 -0.97701,0.164923 -2.01042,0.07855 -2.99827,0.07855 -0.26892,0 -0.85661,0.111862 -1.08314,-0.04599 -0.24831,-0.173101 -0.10748,-1.060753 -0.10748,-1.338936 v -3.70675 c 0,-0.281127 -0.13089,-1.035185 0.14262,-1.204578 0.27824,-0.172316 0.95668,-0.05124 1.26866,-0.01395 0.9785,0.116978 2.19653,-0.191295 3.08612,0.369487 0.54591,0.34412 0.47511,0.884584 0.59479,1.42937 0.032,0.14583 0.14553,0.318351 0.31265,0.214457 0.20542,-0.127707 0.14307,-0.501544 0.16949,-0.705383 0.0903,-0.69633 0.0615,-1.403607 0.18501,-2.099097 0.0352,-0.197973 0.18085,-0.669015 -0.1602,-0.644405 z m -34.74465,0.0016 c -0.49081,0.01265 -0.99689,0.2165 -1.49862,0.238745 -2.10374,0.09326 -4.28967,0.09326 -6.39341,0 -0.69085,-0.03063 -1.37868,-0.04289 -2.07222,-0.04289 -0.19263,0 -0.62026,-0.07995 -0.76688,0.07183 -0.13432,0.139059 0.005,0.292295 0.15038,0.320394 0.73555,0.141916 1.66003,-0.09052 1.94923,0.858346 0.227,0.744798 0.12248,1.641076 0.12248,2.411739 v 4.421952 4.555278 c 0,1.095612 0.0425,2.222839 -0.14315,3.305224 -0.0664,0.386984 -0.16408,0.852519 -0.56224,1.021127 -0.21948,0.09295 -1.27659,0.06128 -1.21801,0.360701 0.0477,0.244009 0.42456,0.181384 0.60048,0.181384 0.61853,0 1.23642,-0.0442 1.85208,-0.04444 1.72655,-6.77e-4 3.48148,-0.02635 5.20279,0.09302 0.63178,0.04381 1.26154,0.04082 1.89601,0.04082 0.30854,0 0.67741,0.04512 0.96996,-0.077 0.29213,-0.121939 0.36144,-0.445187 0.41393,-0.727088 0.11815,-0.634352 0.17952,-1.278966 0.23978,-1.920296 0.0177,-0.188126 0.10702,-0.846165 -0.1695,-0.868681 -0.30198,-0.0246 -0.42228,1.037716 -0.53433,1.270724 -0.32642,0.678817 -0.97942,0.908065 -1.66967,1.008207 -0.83545,0.121209 -1.76949,0.112646 -2.60139,-0.02946 -0.40155,-0.06854 -0.81131,-0.186699 -1.06712,-0.533817 -0.31426,-0.426423 -0.29972,-1.012201 -0.29972,-1.51722 v -2.545581 -2.009697 c 0,-0.222769 -0.0701,-0.599645 0.0455,-0.797367 0.18775,-0.321189 1.13769,-0.09612 1.45366,-0.09612 0.86863,0 2.44581,-0.241877 2.99982,0.625285 0.24472,0.383047 0.13075,0.799878 0.27337,1.20096 0.068,0.191245 0.2839,0.191147 0.35966,0.0026 0.15392,-0.383886 0.0358,-0.968664 0.0894,-1.381828 0.0692,-0.533402 0.0622,-1.075336 0.14728,-1.608171 0.0267,-0.166995 0.12473,-0.494419 0.01,-0.642855 -0.084,-0.104286 -0.22408,-0.03066 -0.30747,0.03204 -0.31375,0.235897 -0.48438,0.408754 -0.8816,0.485758 -0.99351,0.192609 -2.07864,0.08062 -3.08664,0.08062 -0.2397,0 -0.85161,0.110321 -1.03146,-0.07183 -0.20373,-0.206369 -0.0708,-0.98855 -0.0708,-1.268139 v -3.617867 c 0,-0.29998 -0.1523,-1.22208 0.17881,-1.35754 0.35977,-0.147183 0.94392,-0.01216 1.32033,0.01395 0.93595,0.06491 2.09855,-0.157453 2.95382,0.340031 0.5727,0.333117 0.51996,0.931702 0.62787,1.492932 0.0264,0.137063 0.14499,0.256239 0.28836,0.177251 0.21516,-0.118549 0.18171,-0.548153 0.18706,-0.756027 0.0171,-0.664185 0.0702,-1.353493 0.17932,-2.009696 0.0324,-0.194963 0.20871,-0.696205 -0.13694,-0.687297 z m -37.486601,0.143144 c -0.293275,-0.0148 -0.581556,-0.0066 -0.773596,0.08578 -0.252882,0.121602 -0.0057,0.344616 0.165881,0.364319 0.54084,0.0621 1.129761,-0.0056 1.533756,0.453202 0.412429,0.46837 0.264759,1.129128 0.33073,1.695504 0.189581,1.627542 0.03152,3.362578 0.03152,5.002279 0,2.730722 0.234209,5.601179 -0.144694,8.306986 -0.05696,0.406763 -0.163061,0.901629 -0.560689,1.102775 -0.303555,0.153561 -0.687596,0.11518 -1.013892,0.152962 -0.111639,0.01292 -0.268976,0.06849 -0.23151,0.215491 0.06132,0.240607 0.449371,0.181384 0.627869,0.181384 0.648502,0 1.294322,-0.04444 1.94045,-0.04444 2.090847,0 4.173611,0.133842 6.260599,0.133842 0.624216,0 1.80176,0.215501 2.335258,-0.165365 0.234183,-0.16718 0.275588,-0.463524 0.328146,-0.728121 0.127054,-0.63964 0.224106,-1.31325 0.24753,-1.965255 0.007,-0.195672 0.158673,-0.723548 -0.100769,-0.818554 -0.182966,-0.06701 -0.269642,0.144407 -0.299724,0.28267 -0.126188,0.579962 -0.31183,1.198783 -0.790649,1.584916 -0.973801,0.785306 -2.814485,0.571946 -3.968233,0.432015 -0.455406,-0.05523 -0.987023,-0.14243 -1.313615,-0.502295 -0.269405,-0.29685 -0.321734,-0.773083 -0.364319,-1.157035 -0.09218,-0.831169 -0.08578,-1.66453 -0.08578,-2.50114 v -7.146334 c 0,-1.176488 -0.189834,-2.565886 0.128674,-3.70675 0.175753,-0.629543 0.749628,-0.776448 1.326534,-0.802018 0.176179,-0.0078 0.724481,0.0797 0.716236,-0.222209 -0.0049,-0.180549 -0.238524,-0.179607 -0.363802,-0.181384 -0.411347,-0.0058 -0.823155,-5.17e-4 -1.23455,-5.17e-4 H 83.8755 c -0.211919,0 -0.509776,-0.03791 -0.803051,-0.05271 z m 13.79554,0 c -0.289542,-0.01385 -0.571875,-0.0026 -0.720886,0.0987 -0.151737,0.103174 -0.07315,0.29134 0.077,0.33693 0.679164,0.206206 1.53452,-0.07912 1.832963,0.823206 0.21231,0.641908 0.148311,1.429853 0.148311,2.099097 v 3.617867 5.180562 c 0,1.168048 0.04876,2.370069 -0.10697,3.528467 -0.05806,0.431907 -0.102225,1.034816 -0.51108,1.285193 -0.327771,0.200721 -0.738361,0.151413 -1.100708,0.193786 -0.111311,0.01302 -0.260542,0.07134 -0.22841,0.215491 0.05377,0.241229 0.450306,0.181384 0.624768,0.181384 0.648495,0 1.293806,-0.04444 1.939934,-0.04444 2.120301,0 4.232391,0.133842 6.348961,0.133842 0.59943,0 1.79951,0.218868 2.28824,-0.197404 0.21081,-0.179567 0.25359,-0.48223 0.30437,-0.740524 0.12159,-0.618464 0.18815,-1.248078 0.23358,-1.875854 0.0145,-0.200623 0.16276,-0.769052 -0.10232,-0.863513 -0.18305,-0.06523 -0.26528,0.143611 -0.29456,0.28267 -0.12787,0.607331 -0.33734,1.23453 -0.84181,1.628841 -0.95524,0.746662 -2.80491,0.523856 -3.9243,0.38809 -0.4595,-0.05573 -0.97841,-0.143594 -1.30793,-0.505912 -0.29627,-0.325768 -0.33764,-0.866773 -0.37104,-1.287777 -0.0638,-0.804224 -0.0847,-1.603501 -0.0847,-2.411739 v -7.056417 c 0,-1.196344 -0.17677,-2.589724 0.13953,-3.751709 0.17057,-0.626599 0.74068,-0.776524 1.31568,-0.802018 0.17927,-0.0079 0.7214,0.07982 0.7214,-0.222209 0,-0.181519 -0.24547,-0.17964 -0.36845,-0.181384 -0.41135,-0.0058 -0.82368,-5.17e-4 -1.23507,-5.17e-4 h -4.012156 c -0.177893,0 -0.474753,-0.03886 -0.764295,-0.05271 z m -27.58643,0.824756 c 0.627373,-0.075 1.332037,0.03651 1.939934,0.194303 4.449549,1.154952 5.634226,6.448221 4.978507,10.467578 -0.413715,2.535955 -1.821218,4.874414 -4.537708,5.212602 -0.61336,0.07636 -1.242743,0.03129 -1.851566,-0.07286 -4.440168,-0.759583 -6.124696,-5.71004 -5.739701,-9.739974 0.18961,-1.984736 0.781043,-4.063924 2.520776,-5.22242 0.814489,-0.542376 1.740284,-0.725715 2.689758,-0.839225 z m -9.038725,31.742765 v 52.746654 12.50569 c 0,2.36179 -0.173111,4.79992 0.05116,7.14582 0.254092,2.65788 1.035778,5.24217 2.083594,7.68222 1.459052,3.39768 3.696481,6.66911 6.374805,9.19634 2.939822,2.77397 6.403283,4.88007 9.920324,6.80682 4.124997,2.25981 8.474483,4.07613 12.875183,5.70508 1.868714,0.69172 3.651349,1.50825 5.335075,2.59053 0.524961,0.33745 1.014954,0.7202 1.499134,1.11415 0.160166,0.13031 0.401773,0.4295 0.617016,0.44597 0.201873,0.0154 0.430703,-0.2642 0.573092,-0.38241 0.452313,-0.37551 0.919353,-0.73877 1.411283,-1.05988 1.7031,-1.11173 3.5155,-1.99228 5.42292,-2.67994 4.40451,-1.5879 8.75986,-3.43455 12.87519,-5.68906 3.58836,-1.96581 7.09729,-4.11063 10.09654,-6.94066 2.03838,-1.92339 3.81881,-4.35052 5.14542,-6.82904 1.67395,-3.12746 2.88883,-6.53466 3.22461,-10.09396 0.23255,-2.46507 0.0517,-5.02628 0.0517,-7.50342 V 122.06232 68.154496 Z m 75.736466,1.068152 c 0.26798,-0.01234 0.52776,-0.0012 0.64647,0.09405 0.12433,0.0998 0.0708,0.394111 0.0708,0.534851 v 1.518771 6.207889 25.45788 25.77052 7.23522 c 0,1.88821 0.0471,3.75689 -0.23927,5.62756 -0.69399,4.53266 -2.83288,8.88842 -5.6875,12.4163 -2.64741,3.2718 -6.00071,5.72267 -9.59322,7.83466 -4.87581,2.86645 -10.05758,5.0835 -15.34428,7.0404 -1.71427,0.63455 -3.39147,1.40822 -4.9382,2.3952 -0.45011,0.28722 -0.89658,0.57825 -1.3224,0.90175 -0.144418,0.10972 -0.379534,0.37707 -0.573608,0.36225 -0.211917,-0.0162 -0.451318,-0.30512 -0.617017,-0.42684 -0.457134,-0.33584 -0.928062,-0.65092 -1.410767,-0.94775 -1.558969,-0.95865 -3.222051,-1.72671 -4.938716,-2.34559 -4.407513,-1.58897 -8.757324,-3.43345 -12.874667,-5.68906 -3.513714,-1.92493 -6.973828,-4.03777 -9.876399,-6.84919 -1.732064,-1.67768 -3.240883,-3.71404 -4.452958,-5.8043 -1.815457,-3.1308 -3.089488,-6.64318 -3.431832,-10.27224 -0.221532,-2.34839 -0.05168,-4.78649 -0.05168,-7.14634 V 122.777 69.271224 h 55.819851 14.41824 3.70365 c 0.1496,0 0.42552,-0.03624 0.6935,-0.04858 z m -72.519091,2.192114 v 51.585478 10.89805 c 0,1.95208 -0.175911,3.99726 0.0078,5.93969 0.278095,2.95995 1.165667,5.91329 2.563151,8.53074 1.228774,2.30145 2.741959,4.48713 4.572847,6.34173 1.98636,2.01209 4.391118,3.60784 6.78925,5.06533 4.397761,2.67277 9.135469,4.79358 13.932999,6.61096 1.774223,0.6721 3.583365,1.27386 5.247225,2.20814 0.563461,0.31639 1.123482,0.6338 1.67535,0.971 0.190656,0.11649 0.472944,0.38508 0.705384,0.37879 0.243252,-0.007 0.543334,-0.26835 0.749825,-0.38654 0.520528,-0.29792 1.052368,-0.58586 1.586978,-0.8568 1.7839,-0.90408 3.60089,-1.62627 5.46737,-2.33112 4.25448,-1.60667 8.42351,-3.48382 12.38994,-5.72524 2.69636,-1.52371 5.40363,-3.21701 7.67189,-5.35729 2.52291,-2.38059 4.56654,-5.33467 5.95881,-8.52661 0.96674,-2.21638 1.56726,-4.55769 1.79368,-6.96754 0.17977,-1.91325 0.007,-3.92803 0.007,-5.8508 v -12.2375 -50.290468 z m 8.917802,1.904794 c 0.337878,-0.01781 0.670776,-0.0109 0.907438,0.08733 0.195501,0.0811 0.338885,0.347963 0.466122,0.509013 l 0.961181,1.206128 c 1.157929,1.46389 2.334961,2.911657 3.491777,4.376477 3.527993,4.46735 7.096684,8.902403 10.643795,13.354223 1.163043,1.45969 2.335435,2.912234 3.492293,4.376994 0.523789,0.66319 1.124639,1.302223 1.586983,2.010213 -0.489465,-0.0729 -0.958266,-0.24007 -1.454691,-0.30024 -0.217202,-0.0263 -0.505323,0.04681 -0.703833,-0.05839 -0.522814,-0.27702 -1.001169,-1.185969 -1.368909,-1.651579 -1.038039,-1.3143 -2.072482,-2.634813 -3.133659,-3.929993 -3.606236,-4.40148 -7.061811,-8.930293 -10.641211,-13.354223 -1.197403,-1.47991 -2.381457,-2.972244 -3.56154,-4.466394 -0.509676,-0.64532 -1.290967,-1.345317 -1.62264,-2.099097 0.25616,0 0.599016,-0.04265 0.936894,-0.06046 z m -2.664437,0.01344 c 0.271676,-0.01187 0.538065,-4.35e-4 0.709518,0.09302 0.233171,0.127 0.421528,0.462903 0.585494,0.668693 0.39126,0.49105 0.783899,0.981082 1.173055,1.473812 1.321492,1.6732 2.664301,3.329059 3.985803,5.002279 3.23256,4.09289 6.474407,8.183576 9.754443,12.237496 1.017829,1.25798 2.001762,2.54458 3.027206,3.79615 0.588468,0.71824 1.385228,1.491876 1.804024,2.322856 -2.054081,0 -4.072231,0.359375 -6.128825,0.02481 -1.155965,-0.18813 -2.366016,-0.720215 -3.395142,-1.275375 v 1.16117 l -1.190108,-0.491443 v 0.982369 l -1.1467,-0.446485 v 0.312643 c -0.451031,-0.34966 -0.800291,-0.935342 -1.154968,-1.384412 -0.684261,-0.86636 -1.377494,-1.725499 -2.06344,-2.590539 -2.153233,-2.71544 -4.32851,-5.413243 -6.481775,-8.128703 -0.875658,-1.10428 -1.762983,-2.198668 -2.636532,-3.304708 -0.337609,-0.42745 -0.952645,-0.954849 -1.12913,-1.474329 -0.0838,-0.24665 -0.02584,-0.589927 -0.02584,-0.848527 v -1.875854 -6.20789 h 3.571358 c 0.192926,0 0.469882,-0.03515 0.741557,-0.04702 z m 58.612956,5.16e-4 c 0.27083,0.01165 0.54673,0.04651 0.74208,0.04651 h 3.57187 v 6.252848 1.830896 l -0.0325,0.849044 -0.74363,0.982369 -1.74614,2.188497 -5.80223,7.280176 -3.63337,4.555277 -0.99633,1.25057 -0.58239,0.625285 v -0.312643 l -1.10226,0.447002 v -0.982886 l -1.19011,0.446484 v -1.071769 c -1.10524,0.19276 -2.04897,0.980918 -3.175,1.187008 -2.14592,0.39275 -4.24563,0.01912 -6.39289,0.01912 0.451,-0.73115 1.08159,-1.381325 1.61334,-2.054655 1.13328,-1.43501 2.2821,-2.857594 3.4215,-4.287594 3.22665,-4.04962 6.40735,-8.144152 9.6883,-12.148612 1.33866,-1.63386 2.64407,-3.29952 3.95376,-4.95732 l 1.13791,-1.42937 c 0.1567,-0.19836 0.3303,-0.503605 0.55708,-0.623735 0.17466,-0.09251 0.44024,-0.104178 0.71106,-0.0925 z m -3.04942,0.04651 h 1.3224 l -1.63143,2.099097 -3.49177,4.376994 -10.5699,13.264823 -3.2396,4.064351 -0.92604,1.16117 -0.47129,0.534851 -0.70176,0.05839 -1.4547,0.30024 1.68414,-2.144055 3.49178,-4.376994 10.57351,-13.264823 3.4556,-4.332035 0.92605,-1.16117 0.46715,-0.534851 z m -32.098818,1.071769 c -0.25026,0.79279 -0.395219,1.497929 -0.192753,2.322339 0.118695,0.48332 0.294786,0.911813 0.809769,0.580843 0.139342,0.59449 -0.309766,1.042964 -0.292488,1.607654 0.0093,0.30297 0.282032,0.500053 0.557072,0.386023 0.106656,-0.0442 0.206654,-0.107984 0.308508,-0.162264 -0.05831,0.74211 -0.573557,1.230206 -0.719336,1.920296 -0.132017,0.62493 0.336655,0.575274 0.675411,0.267684 0.491737,0.95009 -0.467828,1.508186 -0.339514,2.412256 0.0818,0.57637 0.457646,1.012755 1.000972,0.625285 h 0.04393 c 0.478679,0.68161 0.235578,1.461007 0.510047,2.188497 0.169935,0.45041 0.558901,0.534483 0.856795,0.178283 0.204774,0.31453 0.34723,0.655248 0.413928,1.027328 0.04263,0.23778 0.01714,0.539806 0.129191,0.757576 0.187465,0.36437 0.500117,0.119357 0.559139,-0.176733 0.720032,0.49767 -0.161944,2.025088 1.058334,2.054138 l -0.08837,-2.232938 -0.484725,0.357084 c 2.26e-4,-0.34251 0.05551,-0.522957 0.308508,-0.759127 -0.502146,-0.24291 -0.403198,-0.80854 -0.264583,-1.25057 -0.795416,-0.15629 -1.567165,-0.464287 -2.095996,-1.116727 -1.059649,-1.30735 -1.184981,-4.209051 0.552938,-5.046721 l -0.826823,-1.473812 -1.025261,-1.206128 1.084172,0.170016 0.28267,-0.482658 c 0.409749,0.2584 0.512714,0.277626 0.749825,-0.178284 l 0.396875,0.267684 h 0.04393 c 0.08538,-0.15181 0.231457,-0.462704 0.441834,-0.428914 0.138245,0.0222 0.242062,0.169083 0.382922,0.175183 0.1617,0.007 0.219278,-0.22656 0.366903,-0.26665 0.140418,-0.0381 0.197828,0.122205 0.315226,0.153995 0.178009,0.0482 0.343766,-0.229629 0.433048,-0.348299 l 0.441317,0.447001 h 0.04392 c 0.332254,-0.47175 0.33987,-0.02934 0.705385,-0.01344 0.16043,0.007 0.27563,-0.177423 0.43718,-0.160713 0.17041,0.0176 0.21868,0.242998 0.36432,0.306958 0.13948,0.0613 0.24813,-0.0879 0.38447,-0.077 0.17882,0.0142 0.2685,0.292235 0.31316,0.435115 l 0.52917,-0.312642 0.22014,0.536401 1.10277,-0.223759 -1.03921,1.25057 -0.76894,1.42937 c 0.37344,0.19623 0.66049,0.581127 0.87901,0.937927 1.21549,1.9847 -0.18077,5.019401 -2.51044,5.225521 0.10947,0.28795 0.18474,0.585566 0.0977,0.893486 -0.0431,0.15105 -0.18087,0.291064 -0.19327,0.446484 -0.017,0.21336 0.0956,0.481545 0.0956,0.714685 l -0.440798,-0.312642 v 1.652612 c 3.56e-4,0.17457 4.8e-5,0.496762 0.264578,0.435632 0.56675,-0.1309 0.39659,-0.879596 0.45424,-1.284676 0.0378,-0.2658 0.15618,-0.511126 0.25115,-0.759126 h 0.0444 c 0.0547,0.34867 0.39346,0.60817 0.58808,0.1788 0.24908,-0.54951 0.0436,-1.250264 0.5581,-1.697054 0.27225,0.32161 0.65982,0.205949 0.81649,-0.178801 0.29651,-0.72817 0.0538,-1.531128 0.50643,-2.232938 0.65252,0.30671 1.08232,-0.06585 1.07694,-0.804085 -0.006,-0.84639 -0.76891,-1.324056 -0.37156,-2.233456 0.12505,0.0881 0.27875,0.2758 0.44029,0.27957 0.29871,0.007 0.28419,-0.444874 0.23047,-0.636654 -0.17937,-0.6403 -0.6563,-1.080854 -0.67076,-1.786454 0.14214,0.0515 0.28772,0.148763 0.4408,0.159163 0.25669,0.0174 0.40138,-0.240356 0.39171,-0.471806 -0.0224,-0.53664 -0.30334,-1.000522 -0.30334,-1.563212 0.5305,0.32277 0.71737,-0.05603 0.82837,-0.580843 0.18267,-0.86364 -0.0454,-1.485719 -0.16691,-2.322339 0.5882,0.41973 0.98751,1.066783 1.23196,1.742013 0.16248,0.44879 0.25055,1.004414 0.55501,1.382344 0.38084,0.47274 1.03788,0.370185 1.21129,-0.221175 h 0.0439 c 0,1.09375 -0.46322,2.051544 -0.56586,3.126424 -0.0635,0.6651 0.3219,1.013479 0.96273,0.892969 0,0.37658 -0.0122,0.767958 -0.17259,1.116728 -0.11076,0.24083 -0.40585,0.482547 -0.41755,0.759127 -0.0229,0.54034 0.74495,0.430672 1.03094,0.312642 -0.21046,0.89718 -0.93518,1.030183 -1.5875,1.478463 -0.67129,0.46132 -1.07556,1.290992 -0.78961,2.094962 0.0849,0.23866 0.2306,0.435345 0.39274,0.625285 v 0.04444 c -0.18494,0.18577 -0.37052,0.370569 -0.61702,0.469739 -0.34837,0.14016 -1.51396,0.123389 -1.10174,0.825789 0.0478,0.0815 0.11105,0.153148 0.17777,0.219108 0.0934,0.0923 0.19432,0.161736 0.30644,0.227376 -0.34447,0.45181 -0.89541,0.458748 -1.41077,0.445968 -0.15053,-0.004 -0.33572,-0.06923 -0.48007,-0.01033 -0.49423,0.20159 0.14539,0.740827 0.39171,0.814937 -0.30641,0.50746 -1.12924,0.474445 -1.63091,0.414445 -0.8083,-0.0967 -1.79639,-0.06691 -2.51354,0.389124 -0.439186,0.27923 -0.396878,0.700496 -0.396878,1.161686 0,0.84274 0.02307,1.663029 0.08837,2.501139 -0.573273,-0.18887 -0.96464,-0.12095 -1.543058,0 0.25061,-0.78044 0.176217,-1.600059 0.176217,-2.411739 0,-0.31061 0.07022,-0.714609 -0.116789,-0.982369 -0.328944,-0.47098 -1.203993,-0.636173 -1.735295,-0.702283 -0.717626,-0.0893 -2.192708,0.465777 -2.645316,-0.370003 0.248097,-0.0803 0.843534,-0.632778 0.350366,-0.821138 -0.261574,-0.0999 -0.723798,0.0297 -1.011825,0.0155 -0.321054,-0.0158 -0.578528,-0.178604 -0.837675,-0.355534 v -0.0894 c 0.101763,-0.0766 0.205238,-0.152189 0.29559,-0.242879 0.06133,-0.0615 0.117962,-0.129298 0.162264,-0.204638 0.425604,-0.72379 -0.769873,-0.673973 -1.119312,-0.826823 -0.235142,-0.10286 -0.434331,-0.290692 -0.617016,-0.467672 v -0.04444 c 0.164897,-0.17504 0.306688,-0.352723 0.393774,-0.580843 0.749823,-1.96416 -1.895563,-2.18173 -2.378149,-3.61735 0.296375,0.1156 1.049551,0.231587 1.041796,-0.312643 -0.0038,-0.2684 -0.294693,-0.528563 -0.407727,-0.759643 -0.162507,-0.33221 -0.193032,-0.751221 -0.193269,-1.116211 0.725085,0.13635 1.014149,-0.291966 0.966349,-0.982886 -0.07211,-1.04235 -0.569474,-1.974974 -0.569474,-3.037024 h 0.04444 c 0.239818,0.57944 0.856743,0.727564 1.25057,0.178284 0.696894,-0.97197 0.58931,-2.449696 1.791622,-3.081466 z m -0.705383,1.33997 c -0.602213,1.28884 -0.485242,2.55376 -0.485242,3.93051 h 0.132291 l 0.4408,-3.93051 z m 13.315461,0 c -0.10191,0.93935 0.12252,2.062762 0.27544,2.992582 0.0431,0.26216 0.0289,0.777128 0.25373,0.937928 l -0.0124,-2.456698 -0.4284,-1.473812 z m -6.56962,1.563212 -0.396875,0.402043 h -0.04393 l -0.396875,-0.312643 c -0.278448,0.42459 -0.403992,0.215255 -0.79375,0.0894 -0.265255,0.37214 -0.316221,0.153585 -0.657324,0.254765 -0.166474,0.0494 -0.21193,0.257608 -0.364319,0.324528 -0.14002,0.0615 -0.341717,-0.09238 -0.47749,-0.132809 l -0.132292,0.402043 -0.220142,-0.04496 0.352434,0.447001 c 0.184289,-0.22727 0.25335,-0.06488 0.485241,-0.04548 0.147474,0.0123 0.246112,-0.137717 0.396875,-0.109037 0.175786,0.0334 0.303605,0.211603 0.484725,0.230993 0.178342,0.0191 0.27045,-0.204647 0.4408,-0.182417 0.15508,0.0202 0.323762,0.232219 0.441317,0.329179 h 0.04393 l 0.396875,-0.316777 0.396875,0.179317 0.394808,-0.186552 0.398425,0.324012 h 0.04444 l 0.4408,-0.446485 h 0.0439 l 0.30903,0.357084 h 0.0439 l 0.5731,-0.402042 h 0.0444 l 0.17621,0.2682 0.48473,-0.223242 0.22066,0.223242 0.26458,-0.447001 h -0.26458 l -0.0884,-0.357084 c -0.48135,0.094 -0.51121,0.191809 -0.83767,-0.268201 -0.32929,0.13839 -0.4587,0.148697 -0.66146,-0.178283 l -0.48421,0.192753 -0.357084,-0.222209 -0.437183,0.252698 z m -5.775875,0.535885 c -0.561712,0.16741 -0.845376,0.7053 -0.969966,1.25057 0.593828,-0.19043 0.957,-0.61751 0.969966,-1.25057 z m 11.419455,0.0894 c 0.006,0.68386 0.3668,1.039301 0.96997,1.295011 -0.0978,-0.57514 -0.44022,-1.063441 -0.96997,-1.295011 z m 2.64584,0.446484 -0.70539,1.831413 c 0.69003,-0.13523 0.96666,-1.241893 0.70539,-1.831413 z m -16.711128,0.0894 c -0.172308,0.59048 0.03651,1.580822 0.7059,1.742012 -0.137119,-0.50888 -0.357321,-1.349602 -0.7059,-1.742012 z m 5.247225,0.446484 c 0.193746,0.36874 0.46606,1.05548 0.837675,1.25057 -0.01222,-0.60036 -0.134215,-1.2442 -0.837675,-1.25057 z m 0.926041,0 c 0.04628,0.31738 0.206224,0.98923 0.484725,1.16117 0.0985,-0.53742 0.09508,-0.99071 -0.484725,-1.16117 z m 0.660942,0.0894 0.35295,1.07177 c 0.253463,-0.42584 0.184934,-0.99647 -0.35295,-1.07177 z m 0.661458,0.133842 0.220659,0.804086 c 0.22344,-0.30411 0.226346,-0.769846 -0.220659,-0.804086 z m 0.573092,0 0.176733,0.849044 c 0.233796,-0.31662 0.249447,-0.735944 -0.176733,-0.849044 z m 0.617533,0.04496 v 0.714685 c 0.315489,-0.1939 0.391304,-0.578335 0,-0.714685 z m 0.617017,0 -0.0439,0.714685 c 0.25839,-0.20216 0.44931,-0.570665 0.0439,-0.714685 z m -6.2606,0.535884 c -0.436304,0.27051 -0.984581,0.405466 -1.23455,0.893486 0.399925,-0.0174 1.349705,-0.343996 1.23455,-0.893486 z m 10.53786,0 c 0.19808,0.69655 0.6389,0.936018 1.3224,0.937928 -0.22743,-0.49397 -0.87289,-0.695588 -1.3224,-0.937928 z m -5.731952,0.491443 -1.014408,0.04444 v 0.04496 c 0.364714,0.24364 0.765682,0.40365 1.014408,-0.0894 z m 1.058334,0 c 0.220814,0.4088 0.757068,0.44158 1.013888,0.04444 z m -0.545187,0.228927 c -0.217176,-0.03351 -0.421543,0.03527 -0.513147,0.306958 h 1.102259 c -0.141985,-0.13766 -0.371936,-0.273446 -0.589112,-0.306958 z m -2.183329,0.04289 c -0.227252,0.04397 -0.449203,0.228099 -0.578776,0.487309 l 1.190625,-0.133842 c -0.151896,-0.301125 -0.384597,-0.39744 -0.611849,-0.353467 z m 4.446754,0.0217 c -0.20118,-0.01841 -0.42429,0.08151 -0.66042,0.24288 v 0.04444 l 0.57361,-0.0083 0.61701,0.187069 c -0.14961,-0.311035 -0.32901,-0.447709 -0.5302,-0.466122 z m -9.390638,0.153479 c -0.02756,1.35361 0.05949,2.437331 0.573608,3.706751 l -2.336808,-0.312643 c 0.67214,0.8363 1.721446,0.235681 2.467033,0.795301 0.264475,0.19851 0.372882,0.575642 0.530717,0.857312 0.36634,0.65377 0.682763,1.315664 1.190625,1.875854 -0.762417,-0.18438 -1.555042,-0.105138 -2.292884,0.133842 v 0.04496 l 1.719792,0.09095 1.190625,0.221692 c -0.317953,-0.88365 -0.210772,-2.040364 -0.04444,-2.947624 -0.643367,0.48112 -0.490393,1.226637 -0.484725,1.920297 h -0.04444 L 92.728707,83.742175 92.226929,81.68752 92.119958,80.705151 Z m 14.153658,0 c -0.0128,1.56339 -0.52141,3.060596 -1.24799,4.421436 -0.35124,0.65786 -0.88019,1.311403 -1.13274,2.010213 h -0.0444 c 0.0538,-0.69115 0.15838,-1.470785 -0.4408,-1.965255 0.008,1.0126 0.19605,1.936464 -0.0439,2.947624 0.28262,-0.0421 0.54989,-0.163493 0.83767,-0.176733 0.65502,-0.0301 1.41244,0.132481 2.0283,-0.135909 -0.62582,-0.38717 -1.56205,-0.266741 -2.24895,-0.178801 0.33054,-0.48974 0.68782,-0.942412 0.95859,-1.473812 0.21259,-0.4172 0.40076,-1.025827 0.80512,-1.289327 0.65495,-0.42681 1.61454,-0.286437 2.33681,-0.586527 v -0.04444 c -0.68285,-0.16468 -1.65387,-0.06337 -2.29288,0.223242 0.49569,-1.22391 0.7392,-2.424619 0.57361,-3.751709 z M 98.102022,81.11908 C 97.90048,81.10703 97.704043,81.225317 97.5434,81.509237 l 0.573092,-0.07752 0.573091,0.07752 C 98.510011,81.273512 98.303565,81.131133 98.102022,81.11908 Z m 2.181778,0.0021 c -0.21864,0.02154 -0.454447,0.179855 -0.62425,0.38809 l 1.1467,0.04444 c -0.102,-0.33909 -0.3038,-0.454094 -0.52245,-0.432531 z m 2.10943,0.119889 -0.61701,0.223242 v 0.04496 l 0.83767,0.357084 z m -6.127788,0.08527 c -0.268277,-0.0766 -0.424777,0.149546 -0.5302,0.540019 l 0.838191,-0.357084 c -0.116634,-0.09789 -0.218565,-0.157402 -0.307991,-0.182935 z m 0.925008,0.361218 -0.4408,0.670244 c 0.457516,-0.15784 0.704819,-0.244363 1.190625,-0.223243 -0.134439,-0.23996 -0.495561,-0.372791 -0.749825,-0.447001 z m 3.86798,0.10387 c -0.22265,-0.07038 -0.46295,0.01093 -0.64906,0.343131 0.48061,-0.0209 0.73921,0.04602 1.19011,0.223243 -0.11378,-0.274005 -0.3184,-0.495995 -0.54105,-0.566374 z m -1.865001,0.0279 c -0.191608,-0.0015 -0.382142,0.116903 -0.503846,0.359668 h 1.013892 C 99.5775,81.941405 99.385036,81.820794 99.193429,81.819295 Z m -9.013404,0.09198 c 0.01886,0.92669 0.54059,1.16117 1.366842,1.16117 l -0.793233,-0.582394 z m 17.901235,0 -1.27899,1.16117 c 0.61148,0 1.64108,-0.28518 1.27899,-1.16117 z m -3.70365,0.312643 c 0.0711,0.53236 0.36938,1.144062 0.79375,1.473812 0,-0.62987 -0.17359,-1.193802 -0.79375,-1.473812 z m -8.818585,0.04444 v 0.848527 h 0.04393 l 0.276986,-0.461987 0.384472,-0.252698 z m 7.231085,0 -0.70539,0.133842 0.42375,0.280603 0.32556,0.434082 z m -4.453477,0.04496 -0.4408,0.625285 0.485242,-0.171049 0.529167,0.12609 z m 1.631425,0 -0.52865,0.580326 0.553972,-0.127124 0.50384,0.172083 z m -6.084383,0.04444 c -0.564058,0.26645 -0.79375,0.84244 -0.79375,1.42937 0.423328,-0.31585 0.717666,-0.90755 0.79375,-1.42937 z m 2.777608,0.223242 -0.308508,0.759127 0.8816,-0.446485 z m 4.936647,0.04341 c -0.16132,0.008 -0.33608,0.160593 -0.48317,0.224793 v 0.04444 l 0.92604,0.447001 c -0.0345,-0.19576 -0.19012,-0.729639 -0.44287,-0.716235 z m -2.37918,0.492476 -0.529167,0.670244 0.04393,0.04444 c 0.385302,-0.18219 0.483014,-0.16088 0.882117,-0.04444 z m -1.5875,0.134359 -0.264583,0.714168 c 0.328449,-0.20694 0.45662,-0.257933 0.837675,-0.178283 -0.07413,-0.24643 -0.331492,-0.467185 -0.573092,-0.535885 z m 3.08663,0 -0.57309,0.490926 0.8816,0.178801 z m -35.273296,0.356568 c 3.309819,4.13098 6.621034,8.262426 9.902755,12.416296 0.849648,1.07545 1.698238,2.153814 2.564184,3.215824 0.311155,0.381612 0.925386,0.924193 0.980819,1.428853 -0.459573,0 -1.353375,0.17519 -1.759582,-0.046 -0.343815,-0.18701 -0.627242,-0.720729 -0.868164,-1.025779 -0.601929,-0.762132 -1.214488,-1.515747 -1.816427,-2.277897 -2.324369,-2.94299 -4.686563,-5.855429 -7.010942,-8.798429 -0.460762,-0.58339 -0.927531,-1.162203 -1.392679,-1.742013 -0.198731,-0.24772 -0.520562,-0.541017 -0.619084,-0.848527 -0.122757,-0.38317 -0.02481,-0.938299 -0.02481,-1.339969 0,-0.2986 -0.07068,-0.705729 0.04393,-0.982369 z m 67.107536,0 h 0.0884 c 0,0.67296 0.19069,1.687268 -0.0264,2.322338 -0.12449,0.36636 -0.53841,0.726278 -0.77618,1.027328 -0.60196,0.76217 -1.21501,1.515747 -1.81695,2.277897 -2.06452,2.61407 -4.16104,5.20194 -6.22546,7.81606 -0.6842,0.8664 -1.37922,1.723621 -2.06344,2.590023 -0.22144,0.28039 -0.53242,0.865627 -0.86816,1.000457 -0.45998,0.18475 -1.26493,0.0269 -1.7601,0.0269 0.0706,-0.4895 0.67011,-1.005609 0.97048,-1.384411 0.87565,-1.10426 1.76301,-2.199215 2.63654,-3.305225 2.25381,-2.85366 4.5452,-5.676578 6.79906,-8.530228 1.001,-1.26738 2.15856,-2.487749 3.0422,-3.841109 z m -36.420003,0.1788 -0.176217,0.759127 0.79375,-0.268201 c -0.11705,-0.23216 -0.380803,-0.398676 -0.617533,-0.490926 z m 6.040973,0 -0.57361,0.490926 c 0.3945,-0.008 0.45898,0.103251 0.79375,0.268201 z m -2.292882,0.490926 c -0.401078,0.47789 -0.527492,1.082171 -0.529166,1.697571 l 0.573091,-0.937927 c 0.115627,0.25083 0.253317,0.623468 0.529167,0.714168 -0.0955,-0.49898 -0.18698,-1.112452 -0.573092,-1.473812 z m -1.369425,0.104903 c -0.15607,-0.0467 -0.242757,0.19146 -0.295073,0.29714 -0.164607,0.33252 -0.267841,0.698799 -0.275435,1.071769 l 0.573092,-0.714168 c 0.114427,0.28254 0.219884,0.775707 0.484725,0.937927 0,-0.37029 -0.02925,-1.455688 -0.487309,-1.592668 z m -1.408183,0.163298 -0.132292,0.937927 0.308509,-0.268201 0.396875,0.491443 C 97.568445,85.265311 97.479538,84.840444 97.1026,84.545744 Z m 4.18837,0 c -0.39228,0.20181 -0.5645,0.741629 -0.57309,1.161169 h 0.0439 c 0.25387,-0.35759 0.28933,-0.335222 0.66146,-0.223242 z m -2.821528,2.099096 c -0.425701,0.36103 -0.345991,0.806088 0.08785,1.116728 z m 0.837675,0.0894 v 0.803568 c 0.316107,-0.23655 0.431439,-0.630048 0,-0.803568 z M 95.86805,87.89541 c -0.148007,0.36802 -0.188127,0.708199 0,1.071769 l -0.573608,-0.312642 c 0.34409,0.90618 1.653688,1.912875 2.601391,2.054655 l -0.484725,-1.33997 c -0.228704,0.18364 -0.220632,0.393117 -0.220658,0.669727 -0.660047,-0.54447 -1.1084,-1.278349 -1.23455,-2.143539 z m 6.52518,0 c -0.27903,0.86861 -0.52751,1.579629 -1.27847,2.143539 0.0662,-0.28468 0.0143,-0.489987 -0.22066,-0.669727 l -0.4408,1.33997 c 0.90955,-0.19274 2.26617,-1.130605 2.55747,-2.054655 l -0.52917,0.312642 c 0.11823,-0.37455 0.21981,-0.760909 -0.0884,-1.071769 z m -3.61528,0.267684 0.04393,2.188497 c 0.61948,-0.32602 0.413166,-1.804687 -0.04393,-2.188497 z m -4.409033,0.894002 c -0.344741,-0.011 -0.626464,0.04641 -0.926042,0.222726 0.175759,0.14573 1.18259,0.296205 1.237651,-0.04909 0.02531,-0.15873 -0.212699,-0.170493 -0.311609,-0.173633 z m 9.866063,0.0052 c -0.21507,-0.008 -0.43402,0.02682 -0.65112,0.08372 0.19881,0.40824 0.91896,0.314654 1.27847,0.178284 v -0.08888 c -0.20128,-0.11435 -0.41228,-0.165154 -0.62735,-0.173116 z m -8.529711,1.341003 c -0.346976,-0.0247 -0.691254,0.03009 -0.983919,0.216525 0.435583,0.35258 1.517477,0.329545 1.984375,0.04444 -0.303556,-0.13232 -0.653479,-0.236286 -1.000456,-0.260966 z m 6.897251,0.03307 c -0.3266,0.02683 -0.65663,0.09964 -0.9586,0.138493 0.29432,0.47312 1.54482,0.32993 1.89601,0 -0.28755,-0.146185 -0.6108,-0.165326 -0.93741,-0.138493 z m -3.869012,1.255221 v 3.081982 c 0.392358,-0.11257 0.396853,-0.499437 0.396875,-0.848527 4.3e-5,-0.67244 0.167065,-1.743755 -0.396875,-2.233455 z m -16.975191,6.833691 c 0.587369,0.10607 1.151175,0.514278 1.719792,0.711068 0.786638,0.272242 1.646444,0.344476 2.4691,0.401526 2.062687,0.14304 4.108146,-0.264638 6.172749,-0.173116 1.917704,0.085 4.296569,0.98052 5.686992,2.32492 0.239054,0.23114 0.567883,0.56527 0.675411,0.88884 0.167028,0.50262 0.03101,1.25761 0.03101,1.78697 v 4.33203 19.42827 c -0.519127,-0.24085 -0.941948,-0.73152 -1.455209,-1.01337 -1.569604,-0.86192 -3.375033,-1.40657 -5.158858,-1.4857 -1.150755,-0.051 -2.335745,0.13796 -3.482991,0.21756 -1.177343,0.0817 -2.402196,0.004 -3.571359,-0.12299 -0.91607,-0.0994 -2.297238,-0.32606 -2.984314,-1.01699 -0.281241,-0.28281 -0.102319,-1.32749 -0.102319,-1.71463 v -4.91287 z m 34.480063,0 v 19.785358 4.86843 c 0,0.3559 0.17311,1.40988 -0.10232,1.65417 -0.74259,0.65865 -1.99793,0.87381 -2.94039,0.98805 -2.24369,0.27194 -4.46142,0.005 -6.70191,-0.0946 -1.95841,-0.0869 -4.15979,0.63841 -5.8198,1.65985 -0.4162,0.25609 -0.752928,0.60346 -1.146702,0.88418 v -19.69647 -4.10879 c 0,-0.52995 -0.149268,-1.33486 0.03721,-1.83141 0.177837,-0.47372 0.688855,-0.89225 1.065055,-1.20148 1.36493,-1.12197 3.53547,-1.89001 5.29115,-1.96784 1.62596,-0.0721 3.23253,0.250718 4.85035,0.219108 1.16317,-0.0227 2.39912,-0.04763 3.52691,-0.373621 0.67404,-0.19483 1.27271,-0.591575 1.94045,-0.784965 z m -35.582321,0.625285 c 0.150349,0.0886 0.426095,0.151901 0.528133,0.296623 0.20535,0.29124 0.04496,1.17858 0.04496,1.53427 v 4.10931 14.96188 3.75171 c 0,0.32121 -0.136035,1.0729 0.10232,1.31258 0.791503,0.79594 2.321573,1.1118 3.381189,1.24024 1.528506,0.18526 3.095626,0.18517 4.629691,0.078 1.372053,-0.0952 2.783888,-0.2834 4.14445,0.0331 1.008942,0.23414 2.027259,0.55571 2.954342,1.02526 0.469358,0.23771 0.88154,0.37889 0.8816,0.9555 -1.564142,-0.57654 -2.998536,-1.44046 -4.717542,-1.51671 -1.378006,-0.0611 -2.729946,0.11439 -4.100525,0.17519 -1.187166,0.0526 -2.390398,-2.9e-4 -3.571875,-0.0837 -1.179857,-0.0838 -2.249995,-0.38656 -3.306775,-0.93069 -0.282199,-0.14529 -0.673481,-0.29072 -0.911572,-0.50075 -0.266531,-0.23512 -0.102319,-1.22319 -0.102319,-1.56476 v -4.60023 -14.3366 -4.15375 c 0,-0.51006 -0.150531,-1.317321 0.04393,-1.786453 z m 36.772431,0 v 19.874753 4.91288 c 0,0.34717 0.17144,1.40651 -0.10232,1.63814 -1.10997,0.93914 -2.86353,1.34984 -4.26279,1.44746 -1.16766,0.0815 -2.3536,0.13622 -3.52691,0.0837 -1.38503,-0.0615 -2.75252,-0.23696 -4.14497,-0.17519 -1.67419,0.0743 -3.16854,0.88183 -4.67362,1.51671 6e-5,-0.57767 0.40472,-0.73556 0.8816,-0.971 0.91826,-0.45335 1.95348,-0.80459 2.95434,-1.01183 1.59794,-0.33087 3.24334,-0.0975 4.85035,0.014 1.16707,0.081 2.36339,0.013 3.52692,-0.0817 1.02614,-0.0836 1.98833,-0.32983 2.91042,-0.79685 0.27336,-0.13845 0.64519,-0.26999 0.86765,-0.48576 0.23907,-0.23189 0.10231,-0.99597 0.10231,-1.31155 v -3.70727 -14.96188 -4.24315 c 0,-0.34104 -0.15109,-1.163717 0.045,-1.445387 0.10784,-0.155692 0.40447,-0.226466 0.57206,-0.296106 z m -37.918615,0.535885 c 0.151668,0.0728 0.389049,0.134974 0.483692,0.285254 0.187761,0.298134 0.04547,1.061854 0.04547,1.411804 v 4.33255 15.09572 3.75171 c 0,0.31531 -0.137316,1.08003 0.101803,1.31154 0.407558,0.39458 1.156518,0.63947 1.661914,0.88832 3.256291,1.60336 7.118178,0.6616 10.581783,0.70332 0.924575,0.0112 1.864955,0.3141 2.733683,0.6103 0.284056,0.0969 0.773844,0.19461 0.987537,0.41548 0.118959,0.12295 0.0708,0.37978 0.0708,0.53743 -1.306195,-0.36114 -2.504186,-0.87533 -3.880383,-0.93638 -1.322526,-0.0587 -2.649955,0.16167 -3.968233,0.22014 -2.926189,0.12982 -6.306119,-0.0815 -8.723499,-1.97455 -0.30467,-0.2386 -0.139009,-1.18926 -0.139009,-1.55236 v -4.64468 -14.47095 -4.19819 c 0,-0.51006 -0.149872,-1.31733 0.04444,-1.786458 z m 39.065315,0 v 20.009118 4.91287 1.20562 c -1e-5,0.1664 0.0332,0.37105 -0.10232,0.49351 -0.41521,0.37536 -1.07677,0.65065 -1.57355,0.90227 -2.17008,1.09908 -4.8824,1.26721 -7.275,1.10122 -1.28189,-0.089 -2.59274,-0.27466 -3.87987,-0.21756 -1.38014,0.0612 -2.57147,0.57378 -3.88038,0.93638 0,-0.15905 -0.0484,-0.41964 0.0708,-0.54415 0.20418,-0.21336 0.67147,-0.30181 0.94361,-0.39378 0.87435,-0.29552 1.80382,-0.6017 2.73369,-0.62477 3.5855,-0.089 7.43518,0.9078 10.80244,-0.79323 0.44566,-0.22514 1.06567,-0.43805 1.44074,-0.76894 0.2393,-0.21111 0.10232,-0.99541 0.10232,-1.29657 v -3.7517 -15.18564 -4.37699 c 0,-0.72137 -0.1964,-1.370138 0.61753,-1.607658 z m -40.354641,1.387508 c 0.267615,0.008 0.546068,0.0419 0.671793,0.0419 v 0.26769 h -1.058333 l -0.04393,27.86961 H 89.34235 c 1.898925,0 3.836959,-0.11331 5.73195,0.002 0.452915,0.028 0.941351,0.49677 1.366842,0.67438 0.790492,0.32997 1.704551,0.48472 2.55695,0.48472 0.868179,0 1.797268,-0.15345 2.601388,-0.49144 0.42786,-0.17983 0.90765,-0.6408 1.36684,-0.66766 1.9112,-0.1118 3.86164,-0.002 5.7764,-0.002 h 11.4639 v -27.86961 c -0.15118,0 -1.14861,0.0831 -1.06919,-0.16692 0.0386,-0.12132 0.22338,-0.10011 0.31936,-0.10077 0.3233,-0.002 0.64667,0 0.96997,0 l 0.0444,28.4055 h -11.68456 c -1.90403,0 -3.87901,-0.15332 -5.77587,0.003 -0.39864,0.0332 -0.85764,0.44887 -1.23455,0.6103 -0.71415,0.30587 -1.56008,0.50258 -2.336812,0.50385 -1.025127,0.002 -1.977994,-0.0741 -2.954341,-0.41755 -0.474766,-0.16699 -1.013345,-0.66712 -1.499134,-0.69711 -1.909572,-0.11792 -3.862336,-0.002 -5.775874,-0.002 H 77.569942 v -21.79505 -4.824 -1.25057 c 0,-0.12998 -0.04055,-0.35469 0.04496,-0.46405 0.08125,-0.10391 0.338032,-0.12176 0.605648,-0.11369 z m 2.305802,28.82874 c 0.357645,0.018 0.722233,0.0656 0.967383,0.0656 -0.811363,1.31534 -1.961102,2.5028 -2.926953,3.70675 -1.941683,2.42031 -3.875215,4.84873 -5.803264,7.28018 -1.111426,1.40161 -2.233207,2.79441 -3.341915,4.19819 -0.527061,0.66734 -1.059092,1.58009 -1.728576,2.0991 -0.200148,-0.33127 -0.705187,-1.07361 -0.637687,-1.47381 0.05992,-0.35523 0.535563,-0.75286 0.752408,-1.02733 0.672651,-0.85142 1.355684,-1.69421 2.0283,-2.54558 2.31305,-2.92777 4.662672,-5.82588 6.975285,-8.75399 0.637236,-0.80683 1.285165,-1.60489 1.922363,-2.41174 0.238958,-0.30259 0.528284,-0.84118 0.868165,-1.02629 0.216268,-0.11779 0.566846,-0.12908 0.924491,-0.1111 z m 36.958469,0.006 c 0.33692,-0.0174 0.6692,-0.0104 0.91002,0.0863 0.33142,0.13309 0.64887,0.72237 0.86816,0.99993 0.64912,0.82166 1.30849,1.63498 1.95751,2.4567 2.32549,2.94432 4.68128,5.86425 7.01921,8.79843 0.6761,0.84854 1.35583,1.69465 2.0283,2.5461 0.20584,0.26062 0.70631,0.68961 0.74776,1.02681 0.0511,0.41598 -0.46695,1.0916 -0.62426,1.47433 h -0.0884 l -3.76463,-4.7346 -5.83014,-7.32461 -2.81223,-3.52847 -1.34927,-1.7415 c 0.25938,0 0.601,-0.042 0.93793,-0.0594 z m -34.429941,0.0274 c 0.198079,0.008 0.398905,0.032 0.555521,0.032 h 2.4691 8.553483 l -3.183268,4.0194 -6.048726,7.59282 -7.081739,8.88782 -3.924308,4.91288 c -2.020866,-1.27478 -3.708644,-3.3621 -5.058089,-5.31492 -0.321861,-0.46577 -0.622782,-0.94181 -0.911572,-1.42937 -0.09407,-0.15883 -0.289293,-0.38578 -0.282154,-0.58032 0.01313,-0.35783 0.630961,-0.88828 0.84646,-1.16117 0.813539,-1.03014 1.623429,-2.06686 2.455148,-3.08199 2.7262,-3.32738 5.340602,-6.74908 8.046537,-10.09344 0.718115,-0.88754 1.425319,-1.78528 2.134753,-2.67994 0.228775,-0.28851 0.545908,-0.90238 0.889352,-1.04489 0.145838,-0.0605 0.341422,-0.0673 0.539502,-0.0589 z m 31.980481,0.004 c 0.18494,-0.005 0.36649,0.006 0.49661,0.0734 0.33532,0.1741 0.60671,0.68761 0.8387,0.98134 0.61373,0.77704 1.23783,1.5458 1.85157,2.32285 2.09994,2.65877 4.19753,5.32466 6.33812,7.94991 1.28591,1.57707 2.5383,3.18432 3.80286,4.77903 0.35485,0.44748 0.70835,0.89692 1.06919,1.33946 0.14258,0.17486 0.40442,0.4011 0.4625,0.62528 0.0457,0.17645 -0.13376,0.39365 -0.21755,0.53589 -0.26814,0.45513 -0.55002,0.90177 -0.8444,1.33997 -1.04857,1.56084 -2.28566,3.03131 -3.68814,4.27519 -0.3292,0.29196 -0.66859,0.57397 -1.01441,0.84542 -0.12006,0.0942 -0.27993,0.27657 -0.44029,0.28887 -0.16784,0.0129 -0.28993,-0.20428 -0.37982,-0.31781 l -0.89038,-1.11672 c -1.20377,-1.52187 -2.39872,-3.05467 -3.6282,-4.55528 -3.48453,-4.25293 -6.87805,-8.59255 -10.28723,-12.90774 -1.03816,-1.31407 -2.07836,-2.62879 -3.13159,-3.93051 -0.65478,-0.80927 -1.41784,-1.61316 -1.96526,-2.50062 h 8.68578 2.42517 c 0.14357,0 0.33182,-0.0225 0.51677,-0.0279 z m -12.46643,0.33228 0.41548,0.4098 0.92553,1.16117 3.5574,4.46639 9.71569,12.19254 3.80855,4.77903 2.03657,2.59054 c -0.26246,0.16407 -0.92034,0.82065 -1.2268,0.7643 -0.16401,-0.0302 -0.29962,-0.28646 -0.39584,-0.40721 l -0.89039,-1.11621 c -1.14789,-1.44759 -2.31156,-2.8827 -3.45663,-4.33256 -3.63403,-4.60134 -7.31866,-9.16216 -10.96161,-13.75626 -1.12431,-1.41786 -2.26425,-2.82254 -3.38584,-4.24264 -0.50275,-0.63654 -1.18637,-1.2835 -1.55236,-2.00969 l 0.96997,-0.33228 z m -7.14013,0.0186 0.438733,0.1328 0.970484,0.34779 -0.546737,0.80356 -1.213363,1.51877 -3.884,4.86792 -9.718787,12.19306 -3.455603,4.33255 -1.728576,2.1885 -1.278475,-0.80409 1.525488,-1.96525 3.31556,-4.15375 10.678934,-13.39867 3.492294,-4.37699 0.961181,-1.20561 z m 2.268079,10.99106 c 0.744904,0.0747 1.460571,0.32726 2.094963,0.85421 0.466828,0.38777 0.856138,0.88494 1.163748,1.4087 1.20776,2.05645 0.39899,4.13825 -1.083133,5.80636 -0.59012,0.66416 -1.327918,1.09207 -2.064474,1.56528 -1.065241,0.68439 -2.140605,1.35331 -3.218925,2.01641 -0.986526,0.60665 -1.905251,1.21466 -2.641182,2.13476 -0.337211,0.42161 -0.571306,1.08437 -0.09043,1.50843 0.296069,0.26115 0.642562,0.0552 0.923975,-0.12764 0.67987,-0.44163 1.279822,-1.07621 1.851566,-1.64848 1.522634,-1.52401 3.261172,-3.16522 5.379517,-3.77754 1.9249,-0.5564 4.15795,0.14143 5.55522,-1.71618 0.80873,0.68371 0.22176,1.83433 -0.0878,2.59054 0.79998,-0.47341 1.6553,-0.89374 2.07222,-1.78645 h 0.0884 c 0.5351,0.80414 0.52384,1.40006 0.48472,2.32234 0.51813,-0.17871 0.92263,-0.49536 1.19063,-0.98237 0.62233,0.30804 0.71507,1.48184 0.79375,2.09909 l 1.23455,-0.89348 c 0.58752,1.01966 0.85212,2.52221 0.26872,3.61787 -0.21683,0.40724 -0.88681,0.8151 -0.98909,1.23144 -0.0394,0.1602 0.16109,0.43082 0.24494,0.55501 0.20423,0.30253 0.44736,0.55573 0.74001,0.7705 0.14644,0.10747 0.4116,0.2324 0.4408,0.43563 0.0284,0.19793 -0.20638,0.44355 -0.32194,0.58032 -1.34289,1.58941 -3.33825,1.56322 -5.23379,1.56322 -1.05931,0 -2.11534,-0.0946 -3.17449,-0.0894 -2.9981,0.0146 -6.043993,0.078 -9.03872,-0.12971 -1.157257,-0.0803 -2.328366,0.0255 -3.483508,-0.0858 -0.517254,-0.0499 -0.997913,-0.0556 -1.454692,-0.3514 -1.860071,-1.20451 -1.979948,-3.89123 -0.837675,-5.641 1.91491,-2.93334 5.465481,-4.33733 8.377267,-6.00377 1.035783,-0.59279 2.199682,-1.3944 2.368331,-2.70578 0.120499,-0.93696 -0.340309,-2.41409 -1.530656,-2.31665 -0.45258,0.037 -0.792147,0.60484 -1.190625,0.80666 -0.559338,0.2833 -1.14577,0.13671 -1.719275,0.27854 -0.862426,0.2133 -1.464383,0.86967 -2.425175,0.87437 -0.190705,9.2e-4 -0.438588,0.0374 -0.612366,-0.0589 -0.212423,-0.1177 -0.249854,-0.423 -0.08062,-0.59324 0.168821,-0.1697 0.446176,-0.20681 0.649056,-0.32505 0.322163,-0.18775 0.590751,-0.49452 0.789616,-0.80925 0.374161,-0.59217 0.236363,-1.34266 0.640788,-1.92029 0.374183,-0.53442 1.059263,-0.69538 1.655712,-0.84285 0.751072,-0.1857 1.525242,-0.28919 2.270146,-0.21445 z m -0.568441,0.17104 c -0.416297,0.002 -0.833905,0.0911 -0.95188,0.26045 v 5.2e-4 l 1.983859,0.41703 1.058333,0.3421 c -0.299147,-0.42125 -0.825857,-0.64682 -1.322917,-0.71469 v -0.045 h 0.176734 c -0.112781,-0.17824 -0.527831,-0.26268 -0.944129,-0.26045 z m -2.026749,0.8475 c -0.216692,0.0192 -0.435115,0.14843 -0.556039,0.3514 -0.160812,0.26994 -0.07353,0.5975 -0.318843,0.83819 -0.181303,0.17789 -0.383048,0.11767 -0.607715,0.0992 -0.137082,0.59993 -0.480684,1.11236 -0.969967,1.47743 -0.202019,0.15071 -0.795762,0.2964 -0.835091,0.57722 -0.05073,0.36225 0.786361,0.20738 0.967383,0.17519 0.915426,-0.16284 1.49532,-0.85472 2.336808,-1.14309 0.155704,-0.0534 0.774798,-0.26025 0.613399,-0.52555 -0.190172,-0.31261 -0.796558,0.12309 -1.083654,-0.16898 -0.243726,-0.24795 -0.115732,-0.69195 0.205672,-0.79375 l -0.08837,-0.2682 c 0.350495,0.25436 0.64798,-0.047 0.396875,-0.40204 l 0.485242,0.0894 c -0.114194,-0.23516 -0.329012,-0.32568 -0.545703,-0.30644 z m 4.470011,0.48524 0.64234,0.80357 0.45992,0.62528 c -0.002,-0.65226 -0.3847,-1.41176 -1.10226,-1.42885 z m -5.599658,1.11621 c -0.04538,0.24745 -0.01872,0.489 -0.309025,0.53589 0.0061,-0.25481 0.07443,-0.42233 0.309025,-0.53589 z m 10.405568,7.01198 -2.68976,0.3576 c 0.18167,0.22209 0.50536,0.40837 0.79375,0.4377 0.42358,0.043 0.96908,-0.23867 0.92604,0.41082 0.4753,-0.20384 0.82988,-0.71354 0.96997,-1.20612 z m -3.21893,0.62528 c -0.99514,-0.0208 -2.179585,-0.0578 -2.865972,0.84853 l 2.072222,-0.53485 z m 4.4664,0.8971 c -0.22738,0.0389 -0.45616,0.16675 -0.54209,0.30903 0.46882,0.0971 0.0888,0.45323 -0.13229,0.62528 0.33183,0.13709 1.39024,-0.21926 1.20716,-0.71003 -0.0796,-0.21335 -0.30541,-0.26317 -0.53278,-0.22428 z m 3.91139,0.0858 -0.39688,1.33997 c 0.15989,-0.003 0.45448,0.0116 0.57258,-0.11628 0.2594,-0.28085 0.0486,-0.98956 -0.1757,-1.22369 z m -7.23109,0.0444 -2.07274,0.13384 c 0.3541,0.42972 1.45376,0.0949 1.54358,0.67024 0.25064,-0.143 0.44389,-0.53124 0.52916,-0.80408 z m 6.48126,0.045 c -0.45545,0.24309 -0.90793,0.26768 -1.41077,0.26768 l 0.27131,0.40204 -0.58033,0.58085 c 0.58815,-7e-5 2.08078,-0.31339 1.71979,-1.25057 z m -5.62239,0.6289 c -0.11918,-0.0102 -0.2506,0.0219 -0.32557,0.0739 -0.23365,0.16219 -0.30348,0.50916 -0.35708,0.77153 0.23348,-0.0676 1.01819,-0.32443 0.93689,-0.6656 -0.0279,-0.11689 -0.13507,-0.16911 -0.25424,-0.17931 z m -1.56477,0.30902 c -0.37756,0.0164 -0.76884,0.10272 -1.14618,0.0847 -1.417096,-0.0631 -2.794222,-0.36034 -4.012158,0.61495 -0.74886,0.59966 -1.469731,2.63316 -0.309025,3.2303 -0.04523,-0.56093 -0.244462,-1.03533 -0.110071,-1.60766 0.384801,-1.63876 2.078587,-1.80022 3.417362,-1.63969 0.733662,0.088 1.783772,0.13419 2.160072,-0.68265 z m 9.25939,0.31265 c -0.29052,0.26758 -0.5989,0.27953 -0.96997,0.35708 v 0.13384 c 0.45456,0.23291 -0.0466,0.71615 -0.22066,0.98289 0.66211,-0.13014 1.53963,-0.63135 1.19063,-1.47381 z m -5.97173,0.12764 c -0.1737,0.004 -0.36047,0.0557 -0.46561,0.0956 0.17623,0.26929 0.17252,0.35482 0,0.62528 0.25726,0.0434 0.99457,-0.11489 0.85266,-0.52658 -0.0529,-0.15347 -0.21336,-0.19797 -0.38705,-0.1943 z m 1.38648,0.22944 c 0.12037,0.54125 -0.0834,0.56708 -0.39688,0.98237 0.80153,0.0641 1.37411,-0.0327 1.80764,-0.80357 z m -16.666686,0.22324 c -0.426223,0.2056 -0.729816,0.83791 -0.936894,1.25057 -0.702712,1.40035 -0.713086,3.25163 0.540019,4.36873 0.874003,0.77916 2.18241,0.63355 3.26285,0.63355 L 91.813,160.34525 91.149992,159.84709 c -0.007,0.21636 -0.120271,0.41428 -0.33538,0.20516 -0.242703,-0.23595 -0.176505,-0.56813 -0.54622,-0.6966 l -0.04444,0.53588 c -0.512593,-0.14936 -0.202021,-0.84233 -0.661458,-1.07177 -0.0012,0.13105 -0.168216,0.78289 -0.325562,0.39739 -0.152782,-0.37433 0.170943,-0.73574 -0.203605,-1.06711 -0.07186,0.29448 -0.334821,0.60104 -0.379305,0.0894 -0.03658,-0.42066 0.400342,-0.8843 0.02687,-1.25057 l -0.08837,0.35708 h -0.08785 l -0.04444,-0.045 0.519348,-1.60765 z m 12.345496,0.12248 c -0.31614,0.12086 -0.51749,0.54447 -0.57309,0.86041 0.16835,-0.0395 0.328,-0.0946 0.48473,-0.16898 0.19056,-0.0905 0.48057,-0.1988 0.5674,-0.41186 0.11068,-0.27162 -0.30581,-0.3458 -0.47904,-0.27957 z m -3.835938,0.10076 c 0.206207,0.48412 0.592884,0.88192 1.058333,1.11673 l 0.220142,-0.53588 z m -0.79375,0.49145 c 0.06609,0.49668 0.37433,1.07552 0.837675,1.29501 0.05846,-0.11259 0.177437,-0.26449 0.165881,-0.39791 -0.02488,-0.28729 -0.761472,-0.78477 -1.003556,-0.8971 z m 6.617168,0.13074 c -0.0921,-0.005 -0.1875,0.003 -0.26769,0.003 l 0.0439,0.75964 c 0.21151,-0.0636 0.78389,-0.41759 0.47077,-0.68161 -0.0664,-0.056 -0.15489,-0.0757 -0.24701,-0.0811 z m 4.67051,0.1819 c 0.36964,0.42678 -0.20628,0.67485 -0.57309,0.84853 0.53774,0.58943 1.44405,-0.1337 1.67535,-0.66973 z m -7.52357,0.21807 c -0.10561,-0.006 -0.21795,0.0148 -0.2806,0.0393 -0.30969,0.12147 -0.41698,0.51402 -0.44132,0.81545 0.19811,-0.0835 1.10923,-0.42721 0.96274,-0.74 -0.0361,-0.077 -0.1352,-0.10791 -0.24082,-0.11369 z m -4.513417,0.0501 c 3.39e-4,0.51928 0.151013,0.89841 0.484725,1.29501 h 0.04444 c 0.376421,-0.48813 -0.146615,-0.87944 -0.441317,-1.29501 z m 8.641847,0.13384 c 0.16109,0.4528 -0.004,0.52526 -0.17621,0.93793 0.56655,0 1.0869,-0.16754 1.23455,-0.80409 z m 5.46737,0.44649 c -2.8484,2.13848 -6.74466,2.79763 -10.22935,2.89181 -0.899969,0.0243 -1.793117,-0.20435 -2.689758,-0.21187 0.123405,0.20657 0.400686,0.25552 0.617533,0.32711 0.57415,0.18956 1.169202,0.2398 1.763715,0.31109 1.1208,0.13438 2.28485,-0.0172 3.39514,-0.17932 1.55751,-0.22734 3.07513,-0.52381 4.54133,-1.11982 0.76207,-0.30977 1.56243,-0.67652 2.16007,-1.26143 0.17946,-0.17563 0.51638,-0.47936 0.44132,-0.75757 z m -7.5985,0.22841 c -0.2889,7.1e-4 -0.46694,0.24409 -0.47026,0.62011 0.30452,-0.055 0.6847,-0.22583 0.79375,-0.53588 -0.11862,-0.0578 -0.22719,-0.0845 -0.32349,-0.0842 z m 4.28501,0.16226 c -0.17125,-0.0366 -0.34049,-0.0392 -0.47853,0.0563 0.22922,0.27255 -0.22558,0.34741 -0.35243,0.53588 0.50977,0.0959 1.05546,0.0727 1.3224,-0.447 -0.14699,-0.0386 -0.3202,-0.10866 -0.49144,-0.14521 z m -3.12384,0.6811 v 5.1e-4 l -0.1323,0.58033 c 0.54582,0.10265 1.03886,-0.0681 1.36685,-0.53589 z m -6.70192,0.22376 c 0.03248,0.63405 0.60233,1.12468 1.190108,1.23868 1.140728,0.22127 2.340802,0.0994 3.483512,-0.0305 0.488,-0.0555 1.38444,-0.0742 1.63142,-0.58291 -2.21291,0.17692 -4.231378,0.27963 -6.30504,-0.62528 z m 12.56616,0.13384 c -0.32895,0.12612 -0.61118,0.36398 -0.92604,0.52348 -0.50379,0.25518 -1.05376,0.44314 -1.5875,0.6227 -0.28843,0.097 -0.84956,0.14471 -1.0139,0.41703 0.36915,-0.0694 0.81696,-0.12982 1.19063,-0.076 0.51966,0.0758 0.80342,0.27575 1.3224,0.031 v -0.0444 c -0.21766,-0.0332 -0.36349,-0.0947 -0.4408,-0.31264 0.47406,-0.12566 0.96511,0.29196 1.41077,-0.045 -0.10668,-0.0506 -0.75833,-0.40307 -0.30748,-0.46199 0.24252,-0.0317 0.56525,0.14932 0.83664,0.14935 z m 36.99774,18.5477 c -0.0529,0.0438 -0.10476,0.0896 -0.1571,0.13436 0.0542,-0.0365 0.10677,-0.0808 0.1571,-0.13436 z m -73.498873,0.0372 c 0.02045,0.0182 0.03972,0.0374 0.06046,0.0553 0.124012,0.1222 0.255396,0.23653 0.382406,0.35554 0.0237,-0.0274 0.04969,-0.055 0.07596,-0.0816 -0.170378,-0.11263 -0.34984,-0.21513 -0.518831,-0.32918 z m 66.210943,2.25309 c -0.0725,0.069 -0.14422,0.13864 -0.21704,0.20722 0.0765,-0.0612 0.15253,-0.12511 0.22841,-0.19017 -0.004,-0.006 -0.008,-0.0112 -0.0114,-0.0171 z m -59.995302,9.94927 c -0.105709,0.0161 -0.211589,0.0313 -0.317293,0.0475 0.05423,0.0214 0.100122,0.0333 0.152962,0.0506 0.05489,-0.0316 0.109982,-0.0676 0.164331,-0.0982 z m -4.292244,2.10891 c 0.04995,0.0274 0.09722,0.056 0.147278,0.0832 -0.0052,-0.02 -0.0098,-0.0395 -0.01499,-0.0594 -0.03989,-0.008 -0.09061,-0.016 -0.132291,-0.0238 z m 21.234879,2.4722 c -0.0037,-2.6e-4 -0.0072,5.4e-4 -0.01085,5.2e-4 0.0036,-6e-5 0.0072,6e-5 0.01085,0 z m -0.01085,5.2e-4 c -0.05857,9.4e-4 -0.117131,0.002 -0.1757,0.004 0.01156,0.002 0.02629,0.005 0.03721,0.006 0.04617,0.006 0.09174,-0.0103 0.138493,-0.0103 z m 45.478359,0.96686 c -0.38596,0.0405 -0.77194,0.0857 -1.15703,0.14056 0.3944,-0.003 0.78106,-0.0546 1.16272,-0.13177 z m -84.240334,0.15142 c -0.01866,0.0225 -0.03722,0.0453 -0.05581,0.0682 0.02323,-0.003 0.046,-0.009 0.06925,-0.0124 -0.0094,-0.0174 -0.005,-0.0381 -0.01344,-0.0558 z m -2.290299,0.24494 c -0.02301,0.0166 -0.04581,0.0332 -0.06873,0.0496 -0.0304,0.0673 -0.08585,0.13198 -0.111104,0.19947 0.08494,-0.0167 0.170833,-0.0283 0.255798,-0.045 -0.02578,-0.0625 -0.05134,-0.12969 -0.07596,-0.20412 z m 53.070143,1.08572 c -0.30743,0.13236 -0.62207,0.24481 -0.93792,0.3545 0.3629,-0.0727 0.73126,-0.11294 1.09243,-0.1943 -0.0494,-0.0587 -0.10432,-0.1034 -0.15451,-0.1602 z" /><text
       xml:space="preserve"
       style="font-size:179.82px;font-family:Silom;-inkscape-font-specification:'Silom, Normal';text-align:start;writing-mode:lr-tb;direction:ltr;text-anchor:start;fill:#ffffff;fill-opacity:1;stroke-width:10;stroke-dasharray:none"
       x="41.940075"
       y="68.817162"
       id="text29"><tspan
         sodipodi:role="line"
         id="tspan29"
         style="stroke-width:10"
         x="41.940075"
         y="68.817162" /></text></g></svg>
